<?xml version="1.0" encoding="UTF-8"?>
<svg id="OzCHI2025_COLOR_LOGO_ONLY" data-name="OzCHI2025_COLOR_LOGO ONLY" xmlns="http://www.w3.org/2000/svg" viewBox="0 0 1387.41 885.1">
  <defs>
    <style>
      .cls-1 {
        fill: #e64626;
      }
    </style>
  </defs>
  <path class="cls-1" d="M196.53,475.16c-48.49-29.76-100.95-46.76-144.21-46.76-.47,0-.95,0-1.42,0-12.65.11-23.35,6.84-28.62,18.02-5.37,11.38-3.92,26.26,3.46,35.38,23.41,28.95,41.76,67.05,59.51,103.9,16.78,34.83,32.63,67.73,52.36,92.47,22.48,28.19,48.28,42.42,76.84,42.42,3.72,0,7.49-.24,11.3-.72,28.01-3.55,53.21-20.02,67.4-44.06,20.47-34.67,12.77-72.14,2.7-97.48-14.09-35.47-50.29-73.08-99.33-103.17ZM250.09,650.39c-6.29,10.66-18.03,18.28-30.63,19.87-33.38,4.23-55.95-37.32-89.16-106.26-13.2-27.39-26.7-55.43-42.8-81.22,26.43,6.07,55.52,18.22,82.86,35,38.85,23.84,69.12,54.12,79.01,79.01,8.51,21.43,8.76,39.96.71,53.6Z"/>
  <path class="cls-1" d="M534.73,696.64c-24.23,15.93-72.33,38.47-98.23,31.1-6.98-1.99-11.63-6.19-15.07-13.61-9.69-20.89,24.3-55.27,54.29-85.6,17.52-17.72,35.64-36.05,47.95-54.32,17.16-25.47,21.24-49.13,12.14-70.3-18.07-42.05-49.49-75.88-93.36-100.56-33.76-18.98-74.9-32.51-122.3-40.2-79.13-12.84-148.49-5.14-151.41-4.81-13.71,1.57-23.55,13.95-21.99,27.67,1.56,13.71,13.95,23.56,27.66,22.01,2.53-.29,254.14-27.02,315.45,115.63,5.83,13.56-27.59,47.35-49.7,69.72-19.46,19.68-39.58,40.03-53.25,61.37-18.53,28.92-22.18,55.98-10.84,80.43,9.58,20.65,25.77,34.72,46.83,40.69,7.96,2.26,16.28,3.23,24.75,3.23,51.32,0,107.47-35.98,114.64-40.71,11.51-7.61,14.67-23.09,7.08-34.61-7.59-11.52-23.1-14.7-34.62-7.12Z"/>
  <path class="cls-1" d="M916.71,569c-13.53-1.93-26.09,7.36-28.23,20.82-.3,1.86-7.45,45.5-17.99,91.94-9.24,40.69-16.94,65.5-22.65,80.53-32.01-72.56-68.28-127.96-110.81-169.24-36.99-35.9-70.39-52.94-94.77-65.38-12.3-6.27-26.22-13.37-26.86-17.16.17-1.6,3.81-24.27,73.61-84.8,53.26-46.19,127.82-99.36,199.44-142.22,65.73-39.34,104.61-55.45,124.04-61.07-4.57,16.09-15.85,45.33-43.27,96.29-24.03,44.65-48.44,83.59-48.68,83.98-7.34,11.69-3.82,27.13,7.87,34.47,11.69,7.35,27.12,3.82,34.47-7.87,1.03-1.63,25.43-40.56,50.25-86.65,52.39-97.32,52.39-126.81,52.39-136.49,0-8.57-2.43-16.07-7.23-22.28-17.75-22.96-52.68-13.21-81.12-2.16-61.42,23.87-162.32,84.32-251.08,150.43-45.7,34.03-84.06,66.63-110.95,94.27-35.77,36.76-51.52,64.76-49.58,88.11,1.25,14.98,8.32,27.82,21.02,38.14,9.02,7.33,20.11,12.99,32.96,19.55,43.76,22.33,117.01,59.69,184.14,213.86.4.92,1.1,2.82,1.78,4.64,5.06,13.71,14.49,39.24,38.74,40.68.71.04,1.41.06,2.1.06,27.9,0,41.23-33.65,47.01-48.22,7.4-18.66,15.05-44.43,22.74-76.6,12.93-54.05,21.83-108.92,21.89-109.36,1.95-13.67-7.55-26.33-21.22-28.29Z"/>
  <path class="cls-1" d="M1272.55,396.4c11.4-7.79,14.33-23.35,6.54-34.75-7.79-11.4-23.35-14.33-34.75-6.54-1.66,1.13-37.14,25.62-83.53,74.83-148.12-15.85-251.62,56.76-256.07,59.95-11.23,8.04-13.84,23.67-5.81,34.9,4.89,6.83,12.56,10.47,20.35,10.47,5.03,0,10.1-1.51,14.5-4.67.24-.17,24.9-17.45,65.97-32.09,28.69-10.23,70.23-20.75,119.55-20.74-46.08,57.68-100.55,142.37-137.16,252.78-4.35,13.11,2.76,27.26,15.86,31.6,2.61.87,5.26,1.28,7.87,1.28,10.48,0,20.25-6.65,23.73-17.14,40.5-122.16,104.28-210.68,150.65-263.44,50.47-57.41,91.91-86.17,92.29-86.43Z"/>
  <path class="cls-1" d="M1383.78,497.24c-7.17-11.8-22.54-15.56-34.35-8.4-4.59,2.79-113.02,70.33-161.89,248.02-3.66,13.31,4.16,27.08,17.48,30.74,2.22.61,4.45.9,6.64.9,10.98,0,21.04-7.28,24.09-18.38,22.62-82.26,59.37-137.27,86.22-168.94,28.9-34.09,52.88-49.25,53.49-49.64,11.74-7.19,15.46-22.52,8.31-34.3Z"/>
</svg>