<?xml version="1.0" encoding="UTF-8"?>
<svg id="Layer_1" xmlns="http://www.w3.org/2000/svg" version="1.1" viewBox="0 0 841.89 365.22">
  <!-- Generator: Adobe Illustrator 29.3.1, SVG Export Plug-In . SVG Version: 2.1.0 Build 151)  -->
  <defs>
    <style>
      .st0 {
        fill: #e51e2b;
      }
    </style>
  </defs>
  <polygon points="640.15 70.18 659.68 70.18 659.68 62.99 591.62 62.99 591.62 70.18 611.26 70.18 611.26 207.09 591.62 207.09 591.62 214.22 659.68 214.22 659.68 207.09 640.15 207.09 640.15 70.18"/>
  <path d="M764.01,214.22v-7.1h-20.86V68.66c31.88-1.59,37.33,5.24,41.41,34.17h7l-2.48-39.84h-121.1l-2.47,39.84h7.18c4.13-28.93,9.51-35.76,41.44-34.17v138.45h-20.87v7.1h70.74Z"/>
  <path d="M578.67,70.13v-7.13h-55.78l-32.79,103.43-31.66-103.43h-55.58v7.13h19.54v137l-21.11-.02c-19.61.48-19.91-16.25-19.82-19.71.27-36.86-7.96-50.28-43.3-55.74v-.49c21.08-2.23,48.01-8.22,48.01-33.77,0-31.46-29.36-34.41-54.12-34.41h-72.92v7.13h19.52v136.97h-19.52v7.12h68.02v-7.12h-19.52v-72.21c12.54-.5,26.67,2.7,33.05,8.19,5.9,5,9.07,20.52,9.07,39.26,0,23.13,11.94,31.88,34.84,31.88h65.56v-7.09h-19.1V72.47h.46l45.02,141.75h7.65l45.3-141.75h.69v134.65h-19.48v7.09h67.93v-7.09h-19.5V70.13h19.5ZM307.66,127.82v-57.69h19.7c20.16,0,27.61,5.06,27.61,30.5,0,20.28-8.36,27.2-28.75,27.2h-18.56Z"/>
  <path class="st0" d="M138.78,54.02h-22.58v18.35h-37.6v38.25h-28.28v56.18h28.28v38.25h37.6v18.29h19.91c46.52,0,87.55-37.54,87.55-84.44s-38.29-84.87-84.87-84.87"/>
  <path d="M278.67,259.97c0-1.26-.68-1.85-1.85-1.85h-3.61v-7.22h8.48c3.78,0,5.37,1.59,5.37,5.37v32.84c0,8.89,5.62,14.19,14.19,14.19s14.19-5.3,14.19-14.28v-32.75c0-3.78,1.68-5.37,5.45-5.37h8.4v7.22h-3.62c-1.17,0-1.84.59-1.84,1.85v29.48c0,12.93-8.99,21.75-22.51,21.75s-22.67-8.82-22.67-21.75v-29.48Z"/>
  <path d="M334.99,302.97h3.6c1.19,0,1.86-.68,1.86-1.85v-50.21h7.63l26.37,37.53c2.18,3.19,4.95,8.07,4.95,8.07h.17s-.59-4.71-.59-8.07v-32.15c0-3.78,1.59-5.37,5.46-5.37h8.4v7.22h-3.62c-1.17,0-1.85.59-1.85,1.85v50.22h-7.56l-26.45-37.53c-2.18-3.19-4.87-8.06-4.87-8.06h-.17s.5,4.78.5,8.06v32.16c0,3.78-1.6,5.37-5.38,5.37h-8.48v-7.22Z"/>
  <polygon points="401.96 302.97 407.75 302.97 407.75 258.12 401.96 258.12 401.96 250.91 421.53 250.91 421.53 258.12 415.73 258.12 415.73 302.97 421.53 302.97 421.53 310.19 401.96 310.19 401.96 302.97"/>
  <path d="M430.68,259.97c-.5-1.51-1.35-1.85-2.76-1.85h-1.17v-7.22h4.7c4.2,0,5.63.92,6.97,4.87l13.01,36.53c1.09,3.19,2.27,8.14,2.27,8.14h.17s1.09-4.95,2.27-8.14l13.01-36.53c1.42-3.95,2.77-4.87,6.96-4.87h4.71v7.22h-1.17c-1.51,0-2.26.34-2.77,1.85l-18.65,50.22h-8.89l-18.65-50.22Z"/>
  <path d="M491.14,258.13h-5.45v-7.22h34.85c3.77,0,5.37,1.59,5.37,5.37v7.47h-7.65v-3.77c0-1.26-.66-1.85-1.84-1.85h-16.88v18.56h20.73v7.22h-20.73v17.21c0,1.17.67,1.85,1.85,1.85h17.29c1.19,0,1.86-.68,1.86-1.85v-3.77h7.72v7.47c0,3.79-1.59,5.38-5.37,5.38h-26.36c-3.78,0-5.38-1.59-5.38-5.38v-46.68Z"/>
  <path d="M559.36,279.38c6.38,0,10.16-4.12,10.16-10.76s-3.78-10.49-9.99-10.49h-11.09v21.25h10.92ZM540.04,258.13h-5.46v-7.22h25.86c10.41,0,17.72,6.55,17.72,17.38,0,9.9-6.46,14.78-10.67,15.7v.17s1.52.75,2.51,2.68l7.15,14.19c.84,1.77,2.18,1.93,4.2,1.93h1.1v7.22h-4.13c-4.61,0-6.29-.59-8.22-4.46l-8.06-15.95c-1.52-2.78-2.61-3.19-5.89-3.19h-7.73v23.6h-8.4v-52.06Z"/>
  <path d="M593.2,296.42s6.04,7.14,14.86,7.14c5.55,0,10.17-3.36,10.17-8.82,0-12.43-28.64-10.51-28.64-28.98,0-8.89,7.81-15.87,18.98-15.87,6.3,0,16.88,2.86,16.88,10.92v4.87h-7.72v-2.77c0-3.11-4.45-5.37-9.16-5.37-6.39,0-10.42,3.53-10.42,7.98,0,12.01,28.56,9.31,28.56,28.79,0,9.07-7.06,16.88-18.81,16.88-12.61,0-19.65-8.82-19.65-8.82l4.95-5.95Z"/>
  <polygon points="635.51 302.97 641.31 302.97 641.31 258.12 635.51 258.12 635.51 250.91 655.09 250.91 655.09 258.12 649.29 258.12 649.29 302.97 655.09 302.97 655.09 310.19 635.51 310.19 635.51 302.97"/>
  <path d="M681.79,258.13h-11.93c-1.17,0-1.84.59-1.84,1.85v3.77h-7.47v-7.81c0-3.77,1.25-5.03,5.03-5.03h40.83c3.76,0,5.03,1.26,5.03,5.03v7.81h-7.47v-3.77c0-1.26-.68-1.85-1.86-1.85h-11.92v52.06h-8.4v-52.06Z"/>
  <path d="M735.38,284.33l-15.03-24.1c-1.09-1.77-1.86-2.1-3.62-2.1h-1.68v-7.22h3.86c4.04,0,5.63.59,7.98,4.54l8.98,14.94c1.94,3.27,3.62,6.63,3.62,6.63h.17s1.59-3.36,3.6-6.63l8.91-14.94c2.35-3.95,4.03-4.54,7.97-4.54h3.87v7.22h-1.61c-1.75,0-2.59.33-3.68,2.1l-14.95,24.1v25.86h-8.39v-25.86Z"/>
</svg>