<?xml version="1.0" encoding="utf-8"?>
<!-- Generator: Adobe Illustrator 27.2.0, SVG Export Plug-In . SVG Version: 6.00 Build 0)  -->
<svg version="1.1" id="Logos" xmlns="http://www.w3.org/2000/svg" xmlns:xlink="http://www.w3.org/1999/xlink" x="0px" y="0px"
	 viewBox="0 0 300.1 139.8" style="enable-background:new 0 0 300.1 139.8;" xml:space="preserve">
<style type="text/css">
	.st0{fill:#65B32E;}
</style>
<g>
	<g>
		<g>
			<g>
				<path class="st0" d="M42.1,59.6c0-1.3,0.2-2.5,0.6-3.6s1-1.9,1.7-2.6c0.7-0.7,1.5-1.3,2.5-1.6c0.9-0.4,1.9-0.6,2.9-0.6
					c1,0,1.9,0.2,2.8,0.6c0.8,0.4,1.5,0.9,2.1,1.5L52.4,56c-0.4-0.3-0.8-0.6-1.1-0.8c-0.4-0.2-0.8-0.3-1.3-0.3
					c-0.5,0-0.9,0.1-1.4,0.3c-0.4,0.2-0.8,0.5-1.1,0.9s-0.6,0.9-0.8,1.4c-0.2,0.6-0.3,1.2-0.3,1.9c0,1.5,0.3,2.6,0.9,3.4
					c0.6,0.8,1.5,1.2,2.5,1.2c0.6,0,1.2-0.1,1.6-0.4c0.4-0.2,0.8-0.5,1.2-0.9l2.3,2.5c-0.7,0.8-1.5,1.4-2.3,1.8
					c-0.9,0.4-1.8,0.6-2.8,0.6c-1,0-2-0.2-3-0.5c-0.9-0.3-1.7-0.8-2.4-1.5c-0.7-0.7-1.3-1.5-1.7-2.5C42.3,62.2,42.1,61,42.1,59.6z"
					/>
				<path class="st0" d="M56.1,61.3c0-1,0.2-1.9,0.5-2.7c0.3-0.8,0.8-1.5,1.3-2c0.5-0.6,1.2-1,1.9-1.3c0.7-0.3,1.4-0.4,2.2-0.4
					c0.9,0,1.7,0.2,2.3,0.5c0.7,0.3,1.2,0.7,1.7,1.3c0.4,0.5,0.8,1.2,1,1.9c0.2,0.7,0.3,1.5,0.3,2.3c0,0.4,0,0.7-0.1,1
					c0,0.3-0.1,0.5-0.1,0.7h-7c0.2,0.8,0.5,1.3,1.1,1.6c0.5,0.3,1.1,0.4,1.8,0.4c0.4,0,0.8-0.1,1.2-0.2c0.4-0.1,0.8-0.3,1.3-0.6
					l1.4,2.5c-0.7,0.5-1.4,0.8-2.2,1.1c-0.8,0.2-1.6,0.4-2.2,0.4c-0.9,0-1.7-0.1-2.5-0.4c-0.8-0.3-1.4-0.7-2-1.2s-1-1.2-1.3-2
					C56.3,63.3,56.1,62.4,56.1,61.3z M63.8,60c0-0.5-0.1-1-0.4-1.3c-0.2-0.4-0.7-0.5-1.3-0.5c-0.5,0-0.9,0.1-1.2,0.4
					c-0.4,0.3-0.6,0.8-0.7,1.4H63.8z"/>
				<path class="st0" d="M69.6,55.2h3.4l0.3,1.5h0.1c0.5-0.5,1-0.9,1.7-1.2c0.6-0.4,1.4-0.5,2.2-0.5c1.3,0,2.3,0.5,2.9,1.4
					s0.9,2.1,0.9,3.6v7.5h-4.2v-7c0-0.8-0.1-1.3-0.3-1.6c-0.2-0.3-0.5-0.4-0.9-0.4c-0.4,0-0.7,0.1-1,0.2c-0.3,0.2-0.6,0.4-0.9,0.7v8
					h-4.2V55.2z"/>
				<path class="st0" d="M84.4,58.5h-1.6v-3.1l1.9-0.1l0.5-3.2h3.5v3.2h2.8v3.3h-2.8v4.2c0,0.7,0.1,1.2,0.4,1.4
					c0.3,0.3,0.6,0.4,1,0.4c0.2,0,0.4,0,0.6-0.1c0.2,0,0.4-0.1,0.5-0.1l0.6,3c-0.3,0.1-0.7,0.2-1.2,0.3c-0.5,0.1-1,0.1-1.7,0.1
					c-0.8,0-1.5-0.1-2-0.4c-0.6-0.2-1-0.6-1.4-1c-0.4-0.4-0.6-1-0.8-1.6c-0.2-0.6-0.3-1.3-0.3-2V58.5z"/>
				<path class="st0" d="M93.7,55.2h3.4l0.3,2.1h0.1c0.5-0.8,1-1.4,1.6-1.8c0.6-0.4,1.2-0.6,1.8-0.6c0.4,0,0.7,0,0.9,0.1
					c0.2,0,0.4,0.1,0.6,0.2l-0.7,3.6c-0.2,0-0.4-0.1-0.6-0.1c-0.2,0-0.4-0.1-0.7-0.1c-0.4,0-0.9,0.2-1.4,0.5
					c-0.5,0.3-0.9,0.8-1.2,1.6v6.8h-4.2V55.2z"/>
				<path class="st0" d="M103,61.3c0-1,0.2-1.9,0.5-2.7c0.3-0.8,0.8-1.5,1.3-2c0.5-0.6,1.2-1,1.9-1.3c0.7-0.3,1.4-0.4,2.2-0.4
					c0.9,0,1.7,0.2,2.3,0.5s1.2,0.7,1.7,1.3c0.4,0.5,0.8,1.2,1,1.9c0.2,0.7,0.3,1.5,0.3,2.3c0,0.4,0,0.7-0.1,1
					c0,0.3-0.1,0.5-0.1,0.7h-7c0.2,0.8,0.5,1.3,1.1,1.6c0.5,0.3,1.1,0.4,1.8,0.4c0.4,0,0.8-0.1,1.2-0.2c0.4-0.1,0.8-0.3,1.3-0.6
					l1.4,2.5c-0.7,0.5-1.4,0.8-2.2,1.1c-0.8,0.2-1.6,0.4-2.2,0.4c-0.9,0-1.7-0.1-2.5-0.4c-0.8-0.3-1.4-0.7-2-1.2
					c-0.6-0.5-1-1.2-1.3-2C103.2,63.3,103,62.4,103,61.3z M110.6,60c0-0.5-0.1-1-0.4-1.3c-0.2-0.4-0.7-0.5-1.3-0.5
					c-0.5,0-0.9,0.1-1.2,0.4c-0.4,0.3-0.6,0.8-0.7,1.4H110.6z"/>
				<path class="st0" d="M121,61.3c0-1,0.2-1.9,0.5-2.7c0.3-0.8,0.8-1.5,1.3-2c0.6-0.5,1.2-1,1.9-1.2c0.7-0.3,1.5-0.4,2.3-0.4
					c0.8,0,1.5,0.1,2.3,0.4c0.7,0.3,1.4,0.7,1.9,1.2c0.6,0.5,1,1.2,1.4,2c0.3,0.8,0.5,1.7,0.5,2.7c0,1-0.2,1.9-0.5,2.7
					c-0.3,0.8-0.8,1.5-1.4,2c-0.6,0.5-1.2,1-1.9,1.2s-1.5,0.4-2.3,0.4c-0.8,0-1.5-0.1-2.3-0.4c-0.7-0.3-1.4-0.7-1.9-1.2
					c-0.6-0.5-1-1.2-1.3-2C121.2,63.3,121,62.4,121,61.3z M125.3,61.3c0,0.9,0.1,1.7,0.4,2.2c0.3,0.5,0.7,0.8,1.4,0.8
					c0.6,0,1.1-0.3,1.4-0.8c0.3-0.5,0.4-1.3,0.4-2.2c0-0.9-0.1-1.7-0.4-2.2c-0.3-0.5-0.7-0.8-1.4-0.8c-0.6,0-1.1,0.3-1.4,0.8
					C125.4,59.7,125.3,60.4,125.3,61.3z"/>
				<path class="st0" d="M142.6,53.7c-0.2-0.1-0.4-0.1-0.6-0.2c-0.2,0-0.4-0.1-0.6-0.1c-0.4,0-0.7,0.1-0.9,0.3
					c-0.2,0.2-0.3,0.6-0.3,1.2v0.3h2.1v3.3h-2.1v9h-4.2v-9h-1.6v-3.1l1.6-0.1v-0.2c0-0.7,0.1-1.3,0.2-1.9c0.2-0.6,0.4-1.1,0.8-1.6
					c0.4-0.5,0.9-0.8,1.5-1.1c0.6-0.3,1.4-0.4,2.3-0.4c0.6,0,1.1,0,1.5,0.1c0.4,0.1,0.8,0.2,1.1,0.3L142.6,53.7z"/>
				<path class="st0" d="M29.2,73.5h10.3V77h-6.1v2.5h5.2V83h-5.2v2.8h6.3v3.5H29.2V73.5z"/>
				<path class="st0" d="M45.1,83l-3.5-5.9h4.5l0.9,1.7c0.2,0.3,0.3,0.7,0.5,1.1c0.2,0.4,0.3,0.7,0.5,1.1h0.1
					c0.1-0.3,0.2-0.7,0.4-1.1c0.1-0.4,0.3-0.7,0.4-1.1l0.6-1.7h4.4l-3.5,6.4l3.7,5.9h-4.5l-1-1.7c-0.2-0.3-0.4-0.7-0.5-1.1
					c-0.2-0.4-0.4-0.7-0.5-1.1h-0.1c-0.1,0.3-0.3,0.7-0.4,1c-0.1,0.4-0.3,0.7-0.4,1.1l-0.7,1.7h-4.4L45.1,83z"/>
				<path class="st0" d="M54.3,83.2c0-1,0.2-1.9,0.5-2.7c0.4-0.8,0.8-1.5,1.4-2c0.6-0.5,1.3-1,2.1-1.2c0.8-0.3,1.6-0.4,2.5-0.4
					c0.7,0,1.4,0.1,2,0.4c0.6,0.2,1.1,0.6,1.6,1l-1.9,2.6c-0.3-0.2-0.5-0.4-0.7-0.5c-0.2-0.1-0.4-0.1-0.7-0.1
					c-0.8,0-1.4,0.3-1.8,0.8c-0.4,0.5-0.7,1.3-0.7,2.2c0,0.9,0.2,1.7,0.7,2.2c0.4,0.5,1,0.8,1.7,0.8c0.4,0,0.7-0.1,1.1-0.2
					c0.3-0.2,0.6-0.3,0.9-0.5l1.7,2.6c-0.6,0.5-1.3,0.9-2,1.2c-0.7,0.2-1.4,0.4-2.1,0.4c-0.9,0-1.7-0.1-2.4-0.4
					c-0.8-0.3-1.4-0.7-2-1.2c-0.6-0.5-1-1.2-1.3-2C54.5,85.2,54.3,84.3,54.3,83.2z"/>
				<path class="st0" d="M65.1,83.2c0-1,0.2-1.9,0.5-2.7c0.3-0.8,0.8-1.5,1.3-2c0.5-0.6,1.2-1,1.9-1.3c0.7-0.3,1.4-0.4,2.2-0.4
					c0.9,0,1.7,0.2,2.3,0.5c0.7,0.3,1.2,0.7,1.7,1.3c0.4,0.5,0.8,1.2,1,1.9c0.2,0.7,0.3,1.5,0.3,2.3c0,0.4,0,0.7-0.1,1
					c0,0.3-0.1,0.5-0.1,0.7h-7c0.2,0.8,0.5,1.3,1.1,1.6c0.5,0.3,1.1,0.4,1.8,0.4c0.4,0,0.8-0.1,1.2-0.2c0.4-0.1,0.8-0.3,1.3-0.6
					l1.4,2.5c-0.7,0.5-1.4,0.8-2.2,1.1c-0.8,0.2-1.6,0.4-2.2,0.4c-0.9,0-1.7-0.1-2.5-0.4c-0.8-0.3-1.4-0.7-2-1.2
					c-0.6-0.5-1-1.2-1.3-2C65.3,85.2,65.1,84.3,65.1,83.2z M72.8,81.9c0-0.5-0.1-1-0.4-1.3c-0.2-0.4-0.7-0.5-1.3-0.5
					c-0.5,0-0.9,0.1-1.2,0.4c-0.4,0.3-0.6,0.8-0.7,1.4H72.8z"/>
				<path class="st0" d="M78.6,72.3h4.2v12.9c0,0.4,0.1,0.7,0.2,0.9c0.2,0.1,0.3,0.2,0.5,0.2c0.1,0,0.2,0,0.2,0c0.1,0,0.1,0,0.2,0
					l0.5,3.1c-0.2,0.1-0.5,0.2-0.8,0.2c-0.3,0.1-0.7,0.1-1.2,0.1c-0.7,0-1.3-0.1-1.8-0.3c-0.5-0.2-0.9-0.5-1.2-0.9
					c-0.3-0.4-0.5-0.9-0.6-1.5c-0.1-0.6-0.2-1.2-0.2-1.9V72.3z"/>
				<path class="st0" d="M85.9,72.3h4.2v12.9c0,0.4,0.1,0.7,0.2,0.9c0.2,0.1,0.3,0.2,0.5,0.2c0.1,0,0.2,0,0.2,0c0.1,0,0.1,0,0.2,0
					l0.5,3.1c-0.2,0.1-0.5,0.2-0.8,0.2c-0.3,0.1-0.7,0.1-1.2,0.1c-0.7,0-1.3-0.1-1.8-0.3c-0.5-0.2-0.9-0.5-1.2-0.9
					c-0.3-0.4-0.5-0.9-0.6-1.5c-0.1-0.6-0.2-1.2-0.2-1.9V72.3z"/>
				<path class="st0" d="M92.6,83.2c0-1,0.2-1.9,0.5-2.7c0.3-0.8,0.8-1.5,1.3-2c0.5-0.6,1.2-1,1.9-1.3c0.7-0.3,1.4-0.4,2.2-0.4
					c0.9,0,1.7,0.2,2.3,0.5c0.7,0.3,1.2,0.7,1.7,1.3c0.4,0.5,0.8,1.2,1,1.9c0.2,0.7,0.3,1.5,0.3,2.3c0,0.4,0,0.7-0.1,1
					c0,0.3-0.1,0.5-0.1,0.7h-7c0.2,0.8,0.5,1.3,1.1,1.6c0.5,0.3,1.1,0.4,1.8,0.4c0.4,0,0.8-0.1,1.2-0.2c0.4-0.1,0.8-0.3,1.3-0.6
					l1.4,2.5c-0.7,0.5-1.4,0.8-2.2,1.1c-0.8,0.2-1.6,0.4-2.2,0.4c-0.9,0-1.7-0.1-2.5-0.4c-0.8-0.3-1.4-0.7-2-1.2
					c-0.6-0.5-1-1.2-1.3-2C92.7,85.2,92.6,84.3,92.6,83.2z M100.2,81.9c0-0.5-0.1-1-0.4-1.3c-0.2-0.4-0.7-0.5-1.3-0.5
					c-0.5,0-0.9,0.1-1.2,0.4c-0.4,0.3-0.6,0.8-0.7,1.4H100.2z"/>
				<path class="st0" d="M106.1,77.1h3.4l0.3,1.5h0.1c0.5-0.5,1-0.9,1.7-1.2c0.6-0.4,1.4-0.5,2.2-0.5c1.3,0,2.3,0.5,2.9,1.4
					c0.6,0.9,0.9,2.1,0.9,3.6v7.5h-4.2v-7c0-0.8-0.1-1.3-0.3-1.6c-0.2-0.3-0.5-0.4-0.9-0.4c-0.4,0-0.7,0.1-1,0.2
					c-0.3,0.2-0.6,0.4-0.9,0.7v8h-4.2V77.1z"/>
				<path class="st0" d="M119.7,83.2c0-1,0.2-1.9,0.5-2.7c0.4-0.8,0.8-1.5,1.4-2c0.6-0.5,1.3-1,2.1-1.2c0.8-0.3,1.6-0.4,2.5-0.4
					c0.7,0,1.4,0.1,2,0.4c0.6,0.2,1.1,0.6,1.6,1l-1.9,2.6c-0.3-0.2-0.5-0.4-0.7-0.5c-0.2-0.1-0.4-0.1-0.7-0.1
					c-0.8,0-1.4,0.3-1.8,0.8c-0.4,0.5-0.7,1.3-0.7,2.2c0,0.9,0.2,1.7,0.7,2.2c0.4,0.5,1,0.8,1.7,0.8c0.4,0,0.7-0.1,1.1-0.2
					c0.3-0.2,0.6-0.3,0.9-0.5l1.7,2.6c-0.6,0.5-1.3,0.9-2,1.2c-0.7,0.2-1.4,0.4-2.1,0.4c-0.9,0-1.7-0.1-2.4-0.4
					c-0.8-0.3-1.4-0.7-2-1.2c-0.6-0.5-1-1.2-1.3-2C119.8,85.2,119.7,84.3,119.7,83.2z"/>
				<path class="st0" d="M130.5,83.2c0-1,0.2-1.9,0.5-2.7c0.3-0.8,0.8-1.5,1.3-2c0.5-0.6,1.2-1,1.9-1.3c0.7-0.3,1.4-0.4,2.2-0.4
					c0.9,0,1.7,0.2,2.3,0.5c0.7,0.3,1.2,0.7,1.7,1.3c0.4,0.5,0.8,1.2,1,1.9c0.2,0.7,0.3,1.5,0.3,2.3c0,0.4,0,0.7-0.1,1
					c0,0.3-0.1,0.5-0.1,0.7h-7c0.2,0.8,0.5,1.3,1.1,1.6c0.5,0.3,1.1,0.4,1.8,0.4c0.4,0,0.8-0.1,1.2-0.2c0.4-0.1,0.8-0.3,1.3-0.6
					l1.4,2.5c-0.7,0.5-1.4,0.8-2.2,1.1c-0.8,0.2-1.6,0.4-2.2,0.4c-0.9,0-1.7-0.1-2.5-0.4c-0.8-0.3-1.4-0.7-2-1.2
					c-0.6-0.5-1-1.2-1.3-2C130.6,85.2,130.5,84.3,130.5,83.2z M138.1,81.9c0-0.5-0.1-1-0.4-1.3c-0.2-0.4-0.7-0.5-1.3-0.5
					c-0.5,0-0.9,0.1-1.2,0.4c-0.4,0.3-0.6,0.8-0.7,1.4H138.1z"/>
				<path class="st0" d="M76.9,97.5c-0.2-0.1-0.4-0.1-0.6-0.2c-0.2,0-0.4-0.1-0.6-0.1c-0.4,0-0.7,0.1-0.9,0.3
					c-0.2,0.2-0.3,0.6-0.3,1.2V99h2.1v3.3h-2.1v9h-4.2v-9h-1.6v-3.1l1.6-0.1v-0.2c0-0.7,0.1-1.3,0.2-1.9c0.2-0.6,0.4-1.1,0.8-1.6
					c0.4-0.5,0.9-0.8,1.5-1.1c0.6-0.3,1.4-0.4,2.3-0.4c0.6,0,1.1,0,1.5,0.1c0.4,0.1,0.8,0.2,1.1,0.3L76.9,97.5z"/>
				<path class="st0" d="M77.4,105.2c0-1,0.2-1.9,0.5-2.7c0.3-0.8,0.8-1.5,1.3-2c0.6-0.5,1.2-1,1.9-1.2c0.7-0.3,1.5-0.4,2.3-0.4
					c0.8,0,1.5,0.1,2.3,0.4c0.7,0.3,1.4,0.7,1.9,1.2c0.6,0.5,1,1.2,1.4,2c0.3,0.8,0.5,1.7,0.5,2.7c0,1-0.2,1.9-0.5,2.7
					c-0.3,0.8-0.8,1.5-1.4,2c-0.6,0.5-1.2,1-1.9,1.2c-0.7,0.3-1.5,0.4-2.3,0.4c-0.8,0-1.5-0.1-2.3-0.4c-0.7-0.3-1.4-0.7-1.9-1.2
					c-0.6-0.5-1-1.2-1.3-2C77.6,107.1,77.4,106.2,77.4,105.2z M81.7,105.2c0,0.9,0.1,1.7,0.4,2.2c0.3,0.5,0.7,0.8,1.4,0.8
					c0.6,0,1.1-0.3,1.4-0.8c0.3-0.5,0.4-1.3,0.4-2.2c0-0.9-0.1-1.7-0.4-2.2c-0.3-0.5-0.7-0.8-1.4-0.8c-0.6,0-1.1,0.3-1.4,0.8
					C81.9,103.5,81.7,104.2,81.7,105.2z"/>
				<path class="st0" d="M91.7,99h3.4l0.3,2.1h0.1c0.5-0.8,1-1.4,1.6-1.8c0.6-0.4,1.2-0.6,1.8-0.6c0.4,0,0.7,0,0.9,0.1
					c0.2,0,0.4,0.1,0.6,0.2l-0.7,3.6c-0.2,0-0.4-0.1-0.6-0.1c-0.2,0-0.4-0.1-0.7-0.1c-0.4,0-0.9,0.2-1.4,0.5
					c-0.5,0.3-0.9,0.8-1.2,1.6v6.8h-4.2V99z"/>
				<path class="st0" d="M107.6,102.3H106v-3.1l1.9-0.1l0.5-3.2h3.5V99h2.8v3.3h-2.8v4.2c0,0.7,0.1,1.2,0.4,1.4
					c0.3,0.3,0.6,0.4,1,0.4c0.2,0,0.4,0,0.6-0.1c0.2,0,0.4-0.1,0.5-0.1l0.6,3c-0.3,0.1-0.7,0.2-1.2,0.3c-0.5,0.1-1,0.1-1.7,0.1
					c-0.8,0-1.5-0.1-2-0.4c-0.6-0.2-1-0.6-1.4-1c-0.4-0.4-0.6-1-0.8-1.6c-0.2-0.6-0.3-1.3-0.3-2V102.3z"/>
				<path class="st0" d="M116.9,94.2h4.2v4l-0.2,2.1c0.4-0.4,0.9-0.7,1.5-1.1c0.6-0.3,1.3-0.5,2.1-0.5c1.3,0,2.3,0.5,2.9,1.4
					c0.6,0.9,0.9,2.1,0.9,3.6v7.5h-4.2v-7c0-0.8-0.1-1.3-0.3-1.6c-0.2-0.3-0.5-0.4-0.9-0.4c-0.4,0-0.7,0.1-1,0.2
					c-0.3,0.2-0.6,0.4-0.9,0.7v8h-4.2V94.2z"/>
				<path class="st0" d="M130.5,105.2c0-1,0.2-1.9,0.5-2.7c0.3-0.8,0.8-1.5,1.3-2c0.5-0.6,1.2-1,1.9-1.3c0.7-0.3,1.4-0.4,2.2-0.4
					c0.9,0,1.7,0.2,2.3,0.5c0.7,0.3,1.2,0.7,1.7,1.3c0.4,0.5,0.8,1.2,1,1.9c0.2,0.7,0.3,1.5,0.3,2.3c0,0.4,0,0.7-0.1,1
					s-0.1,0.5-0.1,0.7h-7c0.2,0.8,0.5,1.3,1.1,1.6c0.5,0.3,1.1,0.4,1.8,0.4c0.4,0,0.8-0.1,1.2-0.2c0.4-0.1,0.8-0.3,1.3-0.6l1.4,2.5
					c-0.7,0.5-1.4,0.8-2.2,1.1c-0.8,0.2-1.6,0.4-2.2,0.4c-0.9,0-1.7-0.1-2.5-0.4c-0.8-0.3-1.4-0.7-2-1.2c-0.6-0.5-1-1.2-1.3-2
					C130.6,107.1,130.5,106.2,130.5,105.2z M138.1,103.8c0-0.5-0.1-1-0.4-1.3c-0.2-0.4-0.7-0.5-1.3-0.5c-0.5,0-0.9,0.1-1.2,0.4
					c-0.4,0.3-0.6,0.8-0.7,1.4H138.1z"/>
			</g>
			<path class="st0" d="M190.2,90.4c-1.4,0-2.7,0.3-3.7,0.9c-1,0.6-1.6,0.9-2.4,1.6l0.1-3.4v-6.9h-7.3v29.6h7.3v-14
				c0.6-0.5,1.1-0.9,1.5-1.2c0.5-0.3,1-0.4,1.7-0.4c0.7,0,1.3,0.2,1.6,0.7c0.3,0.5,0.5,1.4,0.5,2.7v12.2h7.3V99.1
				c0-2.6-0.5-4.7-1.6-6.3C194.2,91.2,192.5,90.4,190.2,90.4z"/>
			<path class="st0" d="M171.7,53.5c-1.2-1.1-2.7-1.9-4.5-2.4c-1.7-0.5-3.7-0.8-5.8-0.8h-8.2v27.7h8.6c2,0,3.8-0.3,5.5-0.8
				c1.7-0.5,3.1-1.4,4.4-2.5s2.2-2.6,2.9-4.3c0.7-1.8,1-3.9,1-6.3c0-2.4-0.3-4.5-1-6.3C174,56,173,54.6,171.7,53.5z M167.6,68
				c-0.4,1.1-0.9,1.9-1.5,2.5c-0.6,0.6-1.4,1-2.3,1.3c-0.9,0.2-1.8,0.4-2.8,0.4h-0.4V56.1h0.4c1,0,1.9,0.1,2.8,0.3
				c0.9,0.2,1.6,0.6,2.3,1.2c0.6,0.6,1.1,1.4,1.5,2.4c0.4,1,0.6,2.3,0.6,4C168.2,65.6,168,66.9,167.6,68z"/>
			<path class="st0" d="M168.3,105.8c-0.8,0.4-1.7,0.6-2.8,0.6c-1.8,0-3.2-0.7-4.3-2.1c-1.1-1.4-1.6-3.4-1.6-6
				c0-1.2,0.2-2.4,0.5-3.4c0.3-1,0.8-1.8,1.3-2.5c0.6-0.7,1.2-1.2,2-1.6c0.8-0.4,1.5-0.6,2.4-0.6c0.9,0,1.7,0.2,2.3,0.5
				c0.7,0.3,1.3,0.8,2,1.4l4-4.5c-1-1-2.2-1.9-3.6-2.6c-1.4-0.7-3-1.1-4.8-1.1c-1.8,0-3.5,0.3-5.1,1c-1.6,0.7-3.1,1.6-4.3,2.8
				c-1.2,1.2-2.2,2.8-3,4.6c-0.7,1.8-1.1,3.9-1.1,6.2c0,2.4,0.4,4.4,1.1,6.2c0.7,1.8,1.7,3.3,2.9,4.4c1.2,1.2,2.6,2.1,4.3,2.6
				c1.6,0.6,3.3,0.9,5.2,0.9c1.7,0,3.3-0.3,4.9-1c1.5-0.7,2.9-1.7,4.1-3.1l-4-4.4C169.8,104.8,169.1,105.4,168.3,105.8z"/>
			<rect x="179.2" y="56.7" class="st0" width="7.3" height="21.3"/>
			<rect x="213" y="56.7" class="st0" width="7.3" height="21.3"/>
			<path class="st0" d="M216.6,54c1.2,0,2.2-0.3,2.9-1c0.8-0.7,1.1-1.6,1.1-2.6c0-1.1-0.4-2-1.1-2.6c-0.8-0.7-1.7-1-2.9-1
				c-1.2,0-2.2,0.3-2.9,1c-0.8,0.7-1.1,1.6-1.1,2.6c0,1.1,0.4,2,1.1,2.6C214.5,53.7,215.4,54,216.6,54z"/>
			<path class="st0" d="M182.8,54c1.2,0,2.2-0.3,2.9-1c0.8-0.7,1.1-1.6,1.1-2.6c0-1.1-0.4-2-1.1-2.6c-0.8-0.7-1.7-1-2.9-1
				c-1.2,0-2.2,0.3-2.9,1c-0.8,0.7-1.1,1.6-1.1,2.6c0,1.1,0.4,2,1.1,2.6C180.7,53.7,181.6,54,182.8,54z"/>
			<path class="st0" d="M251.3,105.5c-1.2,0-2.2,0.3-2.9,1c-0.8,0.7-1.1,1.6-1.1,2.6s0.4,2,1.1,2.6c0.8,0.7,1.7,1,2.9,1
				s2.2-0.3,2.9-1c0.8-0.7,1.1-1.6,1.1-2.6s-0.4-2-1.1-2.6C253.5,105.8,252.5,105.5,251.3,105.5z"/>
			<path class="st0" d="M249.5,56.1c-1.7,0-3.3,0.2-4.8,0.7c-1.5,0.5-3.1,1.2-4.6,2.1l2.6,4.8c1.1-0.6,2.1-1,2.9-1.3
				c0.9-0.3,1.7-0.4,2.4-0.4c1.8,0,2.8,0.7,3,2.2c-4.1,0.4-7,1.3-8.9,2.5c-1.8,1.3-2.7,3-2.7,5.2c0,0.9,0.1,1.7,0.4,2.5
				s0.7,1.5,1.3,2.1c0.6,0.6,1.2,1.1,2,1.4c0.8,0.4,1.7,0.5,2.7,0.5c1.2,0,2.2-0.2,3.2-0.7c1-0.5,1.9-1.1,2.7-1.9h0.2l0.5,2h6V66.1
				c0-3.5-0.8-6-2.4-7.6C254.4,56.9,252.2,56.1,249.5,56.1z M251,71.4c-0.4,0.4-0.8,0.8-1.2,1c-0.4,0.3-0.9,0.4-1.5,0.4
				c-1.3,0-2-0.5-2-1.5c0-0.6,0.3-1.1,1-1.7c0.7-0.5,1.9-0.9,3.6-1.1V71.4z"/>
			<path class="st0" d="M236.4,89.4l0,2.8c-0.7-0.7-1.1-0.9-1.9-1.3c-0.7-0.4-1.7-0.6-2.9-0.6c-1.1,0-2.1,0.3-3.2,0.8
				c-1.1,0.5-2,1.2-2.8,2.2c-0.8,1-1.5,2.1-2,3.5s-0.7,3-0.7,4.7c0,1.7,0.2,3.3,0.6,4.7c0.4,1.4,1,2.5,1.7,3.5
				c0.8,1,1.7,1.7,2.7,2.2c1.1,0.5,2.3,0.8,3.6,0.8c0.9,0,1.9-0.2,2.8-0.7c1-0.5,1.8-1,2.5-1.8h0.2l0.5,2h6V82.5h-7.3V89.4z
				 M236.4,105.2c-0.4,0.6-0.8,1-1.2,1.2c-0.4,0.2-0.9,0.3-1.5,0.3c-1,0-1.8-0.4-2.3-1.2c-0.6-0.8-0.8-2.2-0.8-4.1
				c0-1.9,0.3-3.2,0.9-4c0.6-0.8,1.3-1.2,2.1-1.2c0.5,0,1,0.1,1.5,0.2c0.5,0.1,1,0.4,1.4,0.8V105.2z"/>
			<path class="st0" d="M271.6,72.5c-0.2,0.1-0.3,0.1-0.4,0.1c-0.1,0-0.2,0-0.4,0c-0.3,0-0.5-0.1-0.8-0.4c-0.3-0.3-0.4-0.8-0.4-1.5
				V48.3h-7.3v22.1c0,1.2,0.1,2.3,0.3,3.3c0.2,1,0.6,1.8,1.1,2.5c0.5,0.7,1.2,1.3,2,1.6c0.8,0.4,1.9,0.6,3.1,0.6
				c0.8,0,1.5-0.1,2.1-0.2c0.6-0.1,1.1-0.3,1.5-0.4L271.6,72.5z"/>
			<path class="st0" d="M208.5,74.7c-1.5-0.9-3.5-1.3-6.2-1.3h-3.2c-1.1,0-1.8-0.1-2.3-0.3c-0.5-0.2-0.7-0.5-0.7-1
				c0-0.3,0-0.5,0.1-0.7c0.1-0.2,0.2-0.3,0.4-0.5c0.9,0.2,1.7,0.3,2.4,0.3c1.2,0,2.3-0.1,3.4-0.4c1-0.3,2-0.7,2.7-1.3
				c0.8-0.6,1.4-1.3,1.8-2.2c0.5-0.9,0.7-2,0.7-3.2c0-0.4,0-0.8-0.1-1.2c-0.1-0.4-0.1-0.7-0.2-1h3.1v-5.3h-7.9
				c-1-0.3-2.2-0.5-3.4-0.5c-1.2,0-2.3,0.2-3.4,0.5c-1.1,0.3-2.1,0.8-2.9,1.4c-0.9,0.6-1.5,1.4-2,2.4c-0.5,1-0.8,2.1-0.8,3.4
				c0,1.2,0.3,2.3,0.9,3.3c0.6,0.9,1.3,1.7,2,2.2v0.2c-0.7,0.5-1.3,1.1-1.7,1.8c-0.4,0.7-0.6,1.4-0.6,2.2c0,0.9,0.2,1.6,0.6,2.2
				c0.4,0.6,0.8,1.1,1.4,1.4v0.2c-2,1-3,2.4-3,4.1c0,1,0.2,1.8,0.7,2.4c0.5,0.7,1.1,1.2,1.9,1.6c0.8,0.4,1.8,0.7,2.8,0.9
				c1.1,0.2,2.2,0.3,3.4,0.3c0.8,0,1.6,0,2.3-0.1c-0.3-0.5-0.5-1.1-0.5-1.9c0-1.1,0.4-2,1.1-2.6c0,0,0.1-0.1,0.1-0.1
				c-0.6,0.1-1.2,0.2-1.9,0.2c-1.2,0-2.3-0.2-3-0.5c-0.8-0.3-1.1-0.8-1.1-1.5c0-0.3,0.1-0.6,0.2-0.8c0.1-0.2,0.3-0.5,0.6-0.7
				c0.3,0.1,0.7,0.1,1.1,0.2c0.4,0,1.1,0.1,1.9,0.1h1.7c0.9,0,1.6,0.1,2.1,0.2c0.5,0.1,0.7,0.5,0.7,1.1c0,0.4-0.2,0.7-0.4,0.9
				c0.3-0.1,0.6-0.1,0.9-0.1c1.2,0,2.2,0.3,2.9,1c0.6,0.5,0.9,1.1,1.1,1.8c0.7-0.5,1.2-1.1,1.6-1.8c0.6-1,0.9-2,0.9-3.2
				C210.7,77,209.9,75.6,208.5,74.7z M197.4,61.7c0.4-0.5,1-0.7,1.7-0.7c0.7,0,1.2,0.2,1.7,0.7s0.6,1.2,0.6,2.2c0,1-0.2,1.8-0.6,2.3
				c-0.4,0.5-1,0.7-1.7,0.7c-0.7,0-1.2-0.2-1.7-0.7c-0.4-0.5-0.6-1.2-0.6-2.3C196.7,62.9,196.9,62.2,197.4,61.7z"/>
			<rect x="200.7" y="90.9" class="st0" width="7.3" height="21.3"/>
			<path class="st0" d="M221,106.8c-0.1,0-0.2,0-0.4,0c-0.3,0-0.5-0.1-0.8-0.4c-0.3-0.3-0.4-0.8-0.4-1.5V82.5h-7.3v22.1
				c0,1.2,0.1,2.3,0.3,3.3c0.2,1,0.6,1.8,1.1,2.5c0.5,0.7,1.2,1.3,2,1.6c0.8,0.4,1.9,0.6,3.1,0.6c0.8,0,1.5-0.1,2.1-0.2
				c0.6-0.1,1.1-0.3,1.5-0.4l-0.9-5.4C221.2,106.8,221.1,106.8,221,106.8z"/>
			<path class="st0" d="M225.3,69.8c0,1.3,0.1,2.5,0.4,3.6c0.3,1.1,0.8,2,1.4,2.7c0.6,0.8,1.4,1.4,2.4,1.8c1,0.4,2.2,0.6,3.6,0.6
				c1.2,0,2.2-0.1,3-0.3c0.8-0.2,1.5-0.3,2-0.5l-1.1-5.3c-0.3,0.1-0.5,0.2-0.9,0.2c-0.3,0.1-0.7,0.1-1,0.1c-0.7,0-1.3-0.2-1.8-0.7
				c-0.5-0.4-0.8-1.3-0.8-2.4v-7.3h4.9v-5.7h-4.9v-5.5h-6l-0.9,5.5l-3.2,0.3v5.4h2.8V69.8z"/>
		</g>
		<g>
			<path class="st0" d="M33.7,34.7H30l-1,3.1h-1.3l3.4-10.2h1.5L36,37.8h-1.4L33.7,34.7z M33.3,33.7l-0.5-1.5
				c-0.2-0.6-0.3-1.1-0.5-1.7c-0.2-0.6-0.3-1.1-0.5-1.7h-0.1c-0.2,0.6-0.3,1.2-0.5,1.7c-0.2,0.6-0.3,1.1-0.5,1.7l-0.5,1.5H33.3z"/>
			<path class="st0" d="M38,27.7h1.3v6c0,0.6,0.1,1.1,0.2,1.5s0.3,0.7,0.5,1s0.5,0.4,0.7,0.5c0.3,0.1,0.6,0.2,0.9,0.2
				c0.3,0,0.7-0.1,1-0.2c0.3-0.1,0.5-0.3,0.8-0.5c0.2-0.2,0.4-0.6,0.5-1s0.2-0.9,0.2-1.5v-6h1.2v6c0,0.8-0.1,1.5-0.3,2.1
				c-0.2,0.6-0.4,1-0.8,1.4s-0.7,0.6-1.2,0.7c-0.4,0.1-0.9,0.2-1.4,0.2s-1-0.1-1.4-0.2S39.4,37.4,39,37s-0.6-0.8-0.8-1.4
				c-0.2-0.6-0.3-1.2-0.3-2.1V27.7z"/>
			<path class="st0" d="M48.8,35.6c0.4,0.4,0.8,0.7,1.3,0.9s1,0.3,1.5,0.3c0.7,0,1.2-0.2,1.6-0.5c0.4-0.3,0.6-0.7,0.6-1.2
				c0-0.3,0-0.5-0.1-0.7s-0.2-0.3-0.4-0.5c-0.2-0.1-0.3-0.2-0.5-0.3c-0.2-0.1-0.4-0.2-0.7-0.3l-1.5-0.6c-0.2-0.1-0.5-0.2-0.7-0.4
				c-0.2-0.1-0.5-0.3-0.7-0.5c-0.2-0.2-0.4-0.5-0.5-0.7c-0.1-0.3-0.2-0.6-0.2-1c0-0.4,0.1-0.7,0.2-1.1c0.2-0.3,0.4-0.6,0.7-0.9
				s0.6-0.4,1-0.6c0.4-0.1,0.8-0.2,1.3-0.2c0.6,0,1.2,0.1,1.7,0.3c0.5,0.2,0.9,0.5,1.3,0.9L54,29.6c-0.3-0.3-0.7-0.5-1-0.7
				c-0.4-0.2-0.8-0.3-1.3-0.3c-0.6,0-1,0.1-1.4,0.4c-0.3,0.3-0.5,0.6-0.5,1.1c0,0.2,0.1,0.5,0.2,0.6c0.1,0.2,0.2,0.3,0.4,0.4
				c0.2,0.1,0.3,0.2,0.5,0.3c0.2,0.1,0.4,0.2,0.6,0.3l1.5,0.6c0.3,0.1,0.6,0.3,0.8,0.4s0.5,0.3,0.7,0.6c0.2,0.2,0.3,0.5,0.4,0.7
				c0.1,0.3,0.2,0.6,0.2,1c0,0.4-0.1,0.8-0.2,1.1c-0.2,0.4-0.4,0.7-0.7,0.9s-0.7,0.5-1.1,0.6S52.1,38,51.5,38c-0.7,0-1.4-0.1-2-0.4
				C49,37.3,48.4,37,48,36.5L48.8,35.6z"/>
			<path class="st0" d="M59.7,28.7h-3.1v-1.1H64v1.1h-3.1v9.1h-1.3V28.7z"/>
			<path class="st0" d="M72.3,37.8l-2.4-4.3H68v4.3h-1.3V27.7h3.2c0.5,0,1,0,1.4,0.1c0.4,0.1,0.8,0.3,1.1,0.5
				c0.3,0.2,0.6,0.5,0.7,0.9c0.2,0.4,0.3,0.8,0.3,1.3c0,0.8-0.2,1.4-0.6,1.9s-1,0.8-1.7,1l2.6,4.4H72.3z M68,32.5h1.7
				c0.8,0,1.4-0.2,1.8-0.5s0.6-0.8,0.6-1.5c0-0.7-0.2-1.1-0.6-1.4c-0.4-0.3-1-0.4-1.8-0.4H68V32.5z"/>
			<path class="st0" d="M81,34.7h-3.7l-1,3.1H75l3.4-10.2h1.5l3.4,10.2H82L81,34.7z M80.7,33.7l-0.5-1.5c-0.2-0.6-0.3-1.1-0.5-1.7
				c-0.2-0.6-0.3-1.1-0.5-1.7h-0.1c-0.2,0.6-0.3,1.2-0.5,1.7s-0.3,1.1-0.5,1.7l-0.5,1.5H80.7z"/>
			<path class="st0" d="M85.7,27.7H87v9.1h4.4v1.1h-5.7V27.7z"/>
			<path class="st0" d="M94,27.7h1.3v10.2H94V27.7z"/>
			<path class="st0" d="M103.6,34.7h-3.7l-1,3.1h-1.3l3.4-10.2h1.5l3.4,10.2h-1.4L103.6,34.7z M103.3,33.7l-0.5-1.5
				c-0.2-0.6-0.3-1.1-0.5-1.7c-0.2-0.6-0.3-1.1-0.5-1.7h-0.1c-0.2,0.6-0.3,1.2-0.5,1.7s-0.3,1.1-0.5,1.7l-0.5,1.5H103.3z"/>
			<path class="st0" d="M108.2,27.7h1.3l3.7,6.4l1.1,2.1h0.1c0-0.5-0.1-1.1-0.1-1.6c0-0.6-0.1-1.1-0.1-1.6v-5.2h1.2v10.2h-1.3
				l-3.7-6.4l-1.1-2.1h-0.1c0,0.5,0.1,1,0.1,1.6c0,0.5,0.1,1.1,0.1,1.6v5.3h-1.2V27.7z"/>
			<path class="st0" d="M130.3,37.8l-2.4-4.3H126v4.3h-1.3V27.7h3.2c0.5,0,1,0,1.4,0.1c0.4,0.1,0.8,0.3,1.1,0.5
				c0.3,0.2,0.6,0.5,0.7,0.9c0.2,0.4,0.3,0.8,0.3,1.3c0,0.8-0.2,1.4-0.6,1.9s-1,0.8-1.7,1l2.6,4.4H130.3z M126,32.5h1.7
				c0.8,0,1.4-0.2,1.8-0.5s0.6-0.8,0.6-1.5c0-0.7-0.2-1.1-0.6-1.4c-0.4-0.3-1-0.4-1.8-0.4H126V32.5z"/>
			<path class="st0" d="M134.5,27.7h5.9v1.1h-4.6v3.2h3.8V33h-3.8v3.7h4.7v1.1h-6V27.7z"/>
			<path class="st0" d="M143.6,35.6c0.4,0.4,0.8,0.7,1.3,0.9s1,0.3,1.5,0.3c0.7,0,1.2-0.2,1.6-0.5c0.4-0.3,0.6-0.7,0.6-1.2
				c0-0.3,0-0.5-0.1-0.7s-0.2-0.3-0.4-0.5c-0.2-0.1-0.3-0.2-0.5-0.3c-0.2-0.1-0.4-0.2-0.7-0.3l-1.5-0.6c-0.2-0.1-0.5-0.2-0.7-0.4
				c-0.2-0.1-0.5-0.3-0.7-0.5c-0.2-0.2-0.4-0.5-0.5-0.7c-0.1-0.3-0.2-0.6-0.2-1c0-0.4,0.1-0.7,0.2-1.1c0.2-0.3,0.4-0.6,0.7-0.9
				s0.6-0.4,1-0.6c0.4-0.1,0.8-0.2,1.3-0.2c0.6,0,1.2,0.1,1.7,0.3c0.5,0.2,0.9,0.5,1.3,0.9l-0.7,0.8c-0.3-0.3-0.7-0.5-1-0.7
				c-0.4-0.2-0.8-0.3-1.3-0.3c-0.6,0-1,0.1-1.4,0.4c-0.3,0.3-0.5,0.6-0.5,1.1c0,0.2,0.1,0.5,0.2,0.6c0.1,0.2,0.2,0.3,0.4,0.4
				c0.2,0.1,0.3,0.2,0.5,0.3c0.2,0.1,0.4,0.2,0.6,0.3l1.5,0.6c0.3,0.1,0.6,0.3,0.8,0.4s0.5,0.3,0.7,0.6c0.2,0.2,0.3,0.5,0.4,0.7
				c0.1,0.3,0.2,0.6,0.2,1c0,0.4-0.1,0.8-0.2,1.1c-0.2,0.4-0.4,0.7-0.7,0.9s-0.7,0.5-1.1,0.6s-0.9,0.2-1.4,0.2c-0.7,0-1.4-0.1-2-0.4
				c-0.6-0.3-1.1-0.6-1.6-1.1L143.6,35.6z"/>
			<path class="st0" d="M152.7,27.7h5.9v1.1H154v3.2h3.8V33H154v3.7h4.7v1.1h-6V27.7z"/>
			<path class="st0" d="M166.3,34.7h-3.7l-1,3.1h-1.3l3.4-10.2h1.5l3.4,10.2h-1.4L166.3,34.7z M166,33.7l-0.5-1.5
				c-0.2-0.6-0.3-1.1-0.5-1.7c-0.2-0.6-0.3-1.1-0.5-1.7h-0.1c-0.2,0.6-0.3,1.2-0.5,1.7s-0.3,1.1-0.5,1.7l-0.5,1.5H166z"/>
			<path class="st0" d="M176.5,37.8l-2.4-4.3h-1.8v4.3H171V27.7h3.2c0.5,0,1,0,1.4,0.1c0.4,0.1,0.8,0.3,1.1,0.5
				c0.3,0.2,0.6,0.5,0.7,0.9c0.2,0.4,0.3,0.8,0.3,1.3c0,0.8-0.2,1.4-0.6,1.9s-1,0.8-1.7,1l2.6,4.4H176.5z M172.3,32.5h1.7
				c0.8,0,1.4-0.2,1.8-0.5s0.6-0.8,0.6-1.5c0-0.7-0.2-1.1-0.6-1.4c-0.4-0.3-1-0.4-1.8-0.4h-1.7V32.5z"/>
			<path class="st0" d="M180.2,32.7c0-0.8,0.1-1.5,0.3-2.2c0.2-0.7,0.5-1.2,1-1.7c0.4-0.5,0.9-0.8,1.4-1c0.6-0.2,1.2-0.4,1.8-0.4
				c0.6,0,1.1,0.1,1.6,0.4c0.5,0.3,0.9,0.5,1.2,0.9l-0.7,0.8c-0.3-0.3-0.6-0.5-0.9-0.7c-0.3-0.2-0.7-0.3-1.1-0.3
				c-0.5,0-0.9,0.1-1.3,0.3c-0.4,0.2-0.7,0.5-1,0.8c-0.3,0.4-0.5,0.8-0.7,1.3c-0.2,0.5-0.2,1.1-0.2,1.7c0,0.6,0.1,1.2,0.2,1.7
				c0.1,0.5,0.4,0.9,0.6,1.3s0.6,0.6,1,0.8c0.4,0.2,0.8,0.3,1.3,0.3s0.9-0.1,1.3-0.3c0.4-0.2,0.7-0.5,1-0.8l0.7,0.8
				c-0.4,0.5-0.8,0.8-1.3,1.1s-1.1,0.4-1.7,0.4c-0.6,0-1.2-0.1-1.8-0.4c-0.5-0.2-1-0.6-1.4-1c-0.4-0.4-0.7-1-0.9-1.7
				C180.3,34.3,180.2,33.6,180.2,32.7z"/>
			<path class="st0" d="M190.5,27.7h1.3v4.3h4.7v-4.3h1.3v10.2h-1.3V33h-4.7v4.8h-1.3V27.7z"/>
			<path class="st0" d="M206.5,32.7c0-0.8,0.1-1.5,0.3-2.2c0.2-0.7,0.5-1.2,1-1.7c0.4-0.5,0.9-0.8,1.4-1c0.6-0.2,1.2-0.4,1.8-0.4
				c0.6,0,1.1,0.1,1.6,0.4c0.5,0.3,0.9,0.5,1.2,0.9l-0.7,0.8c-0.3-0.3-0.6-0.5-0.9-0.7c-0.3-0.2-0.7-0.3-1.1-0.3
				c-0.5,0-0.9,0.1-1.3,0.3c-0.4,0.2-0.7,0.5-1,0.8c-0.3,0.4-0.5,0.8-0.7,1.3c-0.2,0.5-0.2,1.1-0.2,1.7c0,0.6,0.1,1.2,0.2,1.7
				c0.1,0.5,0.4,0.9,0.6,1.3s0.6,0.6,1,0.8c0.4,0.2,0.8,0.3,1.3,0.3s0.9-0.1,1.3-0.3c0.4-0.2,0.7-0.5,1-0.8l0.7,0.8
				c-0.4,0.5-0.8,0.8-1.3,1.1c-0.5,0.3-1.1,0.4-1.7,0.4c-0.6,0-1.2-0.1-1.8-0.4c-0.5-0.2-1-0.6-1.4-1c-0.4-0.4-0.7-1-0.9-1.7
				C206.6,34.3,206.5,33.6,206.5,32.7z"/>
			<path class="st0" d="M220.1,38c-0.6,0-1.2-0.1-1.8-0.4c-0.5-0.2-1-0.6-1.4-1.1c-0.4-0.5-0.7-1-0.9-1.7c-0.2-0.7-0.3-1.4-0.3-2.2
				c0-0.8,0.1-1.5,0.3-2.2c0.2-0.6,0.5-1.2,0.9-1.6c0.4-0.4,0.8-0.8,1.4-1c0.5-0.2,1.1-0.4,1.8-0.4c0.6,0,1.2,0.1,1.7,0.4
				c0.5,0.2,1,0.6,1.4,1c0.4,0.4,0.7,1,0.9,1.6c0.2,0.6,0.3,1.4,0.3,2.2c0,0.8-0.1,1.6-0.3,2.2c-0.2,0.7-0.5,1.2-0.9,1.7
				c-0.4,0.5-0.8,0.8-1.4,1.1C221.3,37.9,220.7,38,220.1,38z M220.1,36.9c0.5,0,0.9-0.1,1.2-0.3c0.4-0.2,0.7-0.5,0.9-0.8
				s0.5-0.8,0.6-1.3c0.1-0.5,0.2-1.1,0.2-1.7c0-0.6-0.1-1.2-0.2-1.7c-0.1-0.5-0.3-0.9-0.6-1.3c-0.3-0.4-0.6-0.6-0.9-0.8
				c-0.4-0.2-0.8-0.3-1.2-0.3c-0.5,0-0.9,0.1-1.2,0.3c-0.4,0.2-0.7,0.5-1,0.8c-0.3,0.4-0.5,0.8-0.6,1.3c-0.1,0.5-0.2,1.1-0.2,1.7
				c0,0.6,0.1,1.2,0.2,1.7c0.1,0.5,0.3,1,0.6,1.3c0.3,0.4,0.6,0.6,1,0.8C219.2,36.8,219.6,36.9,220.1,36.9z"/>
			<path class="st0" d="M227.4,27.7h1.3v6c0,0.6,0.1,1.1,0.2,1.5s0.3,0.7,0.5,1c0.2,0.2,0.5,0.4,0.7,0.5c0.3,0.1,0.6,0.2,0.9,0.2
				c0.3,0,0.7-0.1,1-0.2c0.3-0.1,0.5-0.3,0.8-0.5c0.2-0.2,0.4-0.6,0.5-1s0.2-0.9,0.2-1.5v-6h1.2v6c0,0.8-0.1,1.5-0.3,2.1
				c-0.2,0.6-0.4,1-0.8,1.4s-0.7,0.6-1.2,0.7S231.6,38,231,38s-1-0.1-1.4-0.2c-0.4-0.1-0.8-0.4-1.2-0.7s-0.6-0.8-0.8-1.4
				c-0.2-0.6-0.3-1.2-0.3-2.1V27.7z"/>
			<path class="st0" d="M238.3,27.7h1.3l3.7,6.4l1.1,2.1h0.1c0-0.5-0.1-1.1-0.1-1.6c0-0.6-0.1-1.1-0.1-1.6v-5.2h1.2v10.2h-1.3
				l-3.7-6.4l-1.1-2.1h-0.1c0,0.5,0.1,1,0.1,1.6c0,0.5,0.1,1.1,0.1,1.6v5.3h-1.2V27.7z"/>
			<path class="st0" d="M248.6,32.7c0-0.8,0.1-1.5,0.3-2.2c0.2-0.7,0.5-1.2,1-1.7c0.4-0.5,0.9-0.8,1.4-1c0.6-0.2,1.2-0.4,1.8-0.4
				c0.6,0,1.1,0.1,1.6,0.4c0.5,0.3,0.9,0.5,1.2,0.9l-0.7,0.8c-0.3-0.3-0.6-0.5-0.9-0.7c-0.3-0.2-0.7-0.3-1.1-0.3
				c-0.5,0-0.9,0.1-1.3,0.3c-0.4,0.2-0.7,0.5-1,0.8c-0.3,0.4-0.5,0.8-0.7,1.3c-0.2,0.5-0.2,1.1-0.2,1.7c0,0.6,0.1,1.2,0.2,1.7
				c0.1,0.5,0.4,0.9,0.6,1.3s0.6,0.6,1,0.8c0.4,0.2,0.8,0.3,1.3,0.3s0.9-0.1,1.3-0.3c0.4-0.2,0.7-0.5,1-0.8l0.7,0.8
				c-0.4,0.5-0.8,0.8-1.3,1.1S253.7,38,253,38c-0.6,0-1.2-0.1-1.8-0.4c-0.5-0.2-1-0.6-1.4-1c-0.4-0.4-0.7-1-0.9-1.7
				C248.7,34.3,248.6,33.6,248.6,32.7z"/>
			<path class="st0" d="M258.9,27.7h1.3v10.2h-1.3V27.7z"/>
			<path class="st0" d="M263.8,27.7h1.3v9.1h4.4v1.1h-5.7V27.7z"/>
		</g>
	</g>
</g>
</svg>
