<svg width="345" height="52" viewBox="0 0 345 52" fill="none" xmlns="http://www.w3.org/2000/svg">
<path d="M62.8914 17.738H60.0424V17.375H61.0339V11.7169H59.0509V12.5055H58.574V10.9407H59.0509V11.2161H63.8829V10.9407H64.3598V12.5055H63.8829V11.7169H61.8999V17.375H62.8914V17.738V17.738Z" fill="#141414"/>
<path d="M71.9028 17.738H69.5432V17.375H70.2837V14.6586H66.5687V17.375H67.3092V17.738H64.9497V17.375H65.6902V11.5917H64.9497V11.2286H67.3092V11.5917H66.5687V14.2205H70.2837V11.5917H69.5432V11.2286H71.9028V11.5917H71.1497V17.3875H71.9028V17.738Z" fill="#141414"/>
<path d="M77.2368 17.7377H72.7311V17.3747H73.4716V11.5913H72.7311V11.2283H76.6846V10.9529H77.1364V12.5177H76.6846V11.679H74.3376V14.2076H76.2076V13.469L76.6594 13.4565V15.3968L76.2076 15.4093V14.6457H74.3376V17.2996H76.7724V16.4358H77.2242V17.7377H77.2368Z" fill="#141414"/>
<path d="M87.0263 11.5917H86.2858V15.3596C86.2858 16.4111 85.9093 17.0996 85.0809 17.5503C84.6668 17.7631 84.1898 17.8882 83.7004 17.8882C82.2696 17.8882 81.2028 16.9369 81.2028 15.6475V11.5917H80.4623V11.2286H82.8218V11.5917H82.0813V15.3346C82.0813 16.5363 82.7842 17.3124 83.8886 17.3124C85.0182 17.3124 85.7838 16.5113 85.7838 15.322V11.5917H85.0433V11.2286H87.0389V11.5917H87.0263Z" fill="#141414"/>
<path d="M93.1386 17.8507H92.8248L89.0219 12.6307V17.375H89.775V17.738H87.7669V17.375H88.5199V11.9672L88.2564 11.5917H87.5786V11.2286H89.0219L92.6491 16.1858V11.5917H91.8961V11.2286H93.8916V11.5917H93.1511V17.8507H93.1386Z" fill="#141414"/>
<path d="M96.9665 17.738H94.6069V17.375H95.3474V11.5917H94.6069V11.2286H96.9665V11.5917H96.226V17.3875H96.9665V17.738Z" fill="#141414"/>
<path d="M100.97 17.9133H100.631L98.1337 11.5917H97.5438V11.2286H100.004V11.5917H99.075L100.995 16.4487L102.903 11.5917H102.25V11.2286H103.945V11.5917H103.455L100.97 17.9133Z" fill="#141414"/>
<path d="M109.053 17.7377H104.547V17.3747H105.288V11.5913H104.547V11.2283H108.501V10.9529H108.952V12.5177H108.501V11.679H106.154V14.2076H108.024V13.469L108.475 13.4565V15.3968L108.024 15.4093V14.6457H106.154V17.2996H108.588V16.4358H109.04V17.7377H109.053Z" fill="#141414"/>
<path d="M115.73 17.738H114.889C114.299 17.738 114.199 17.6754 113.872 17.1497L112.391 14.8088H111.613V17.375H112.354V17.738H109.994V17.375H110.735V11.5917H109.994V11.2286H112.755C113.722 11.2286 114.261 11.4915 114.563 12.1049C114.688 12.3678 114.763 12.6682 114.763 12.9812C114.763 13.9451 114.224 14.5584 113.282 14.6961L114.713 16.8868C114.952 17.2498 115.115 17.375 115.353 17.375H115.742V17.738H115.73ZM111.613 14.3582H112.567C113.32 14.3582 113.847 13.8074 113.847 12.9937C113.847 12.1425 113.383 11.6668 112.554 11.6668H111.626V14.3582H111.613Z" fill="#141414"/>
<path d="M116.997 17.8382H116.533V16.0606H116.997V16.8367C117.6 17.2373 117.863 17.3375 118.303 17.3375C119.093 17.3375 119.633 16.9244 119.633 16.2985C119.633 15.7351 119.244 15.322 118.177 14.7713C116.922 14.1203 116.508 13.6196 116.508 12.8184C116.508 11.842 117.336 11.1035 118.466 11.1035C118.955 11.1035 119.332 11.1911 119.646 11.3789V11.0158H120.097V12.7058H119.646V12.0048C119.144 11.6668 118.893 11.5666 118.491 11.5666C117.813 11.5666 117.386 11.9672 117.386 12.5806C117.386 13.0813 117.675 13.3692 118.918 14.0828C120.16 14.7963 120.512 15.2344 120.512 16.0356C120.512 17.0621 119.658 17.8507 118.541 17.8507C117.914 17.8507 117.512 17.7255 117.01 17.4V17.8382H116.997Z" fill="#141414"/>
<path d="M123.762 17.738H121.403V17.375H122.143V11.5917H121.403V11.2286H123.762V11.5917H123.022V17.3875H123.762V17.738Z" fill="#141414"/>
<path d="M128.72 17.738H125.871V17.375H126.862V11.7169H124.879V12.5055H124.402V10.9407H124.879V11.2161H129.711V10.9407H130.188V12.5055H129.711V11.7169H127.728V17.375H128.72V17.738V17.738Z" fill="#141414"/>
<path d="M134.983 17.738H132.623V17.375H133.363V14.7337L131.318 11.5791H130.74V11.2161H133.188V11.5791H132.284L133.991 14.1704L135.572 11.5791H134.669V11.2161H136.652V11.5791H136.137L134.229 14.6711V17.375H134.983V17.738Z" fill="#141414"/>
<path d="M139.199 14.4958C139.199 12.6432 140.643 11.1035 142.4 11.1035C144.119 11.1035 145.575 12.6432 145.575 14.4833C145.575 16.3235 144.132 17.8757 142.4 17.8757C140.668 17.8757 139.199 16.336 139.199 14.4958ZM140.191 14.4833C140.191 16.1482 141.12 17.3625 142.412 17.3625C143.68 17.3625 144.609 16.1482 144.609 14.4833C144.609 12.8184 143.693 11.6167 142.425 11.6167C141.12 11.6167 140.191 12.8059 140.191 14.4833Z" fill="#141414"/>
<path d="M148.55 17.7377H146.19V17.3747H146.931V11.5913H146.19V11.2283H150.144V10.9529H150.596V12.5177H150.144V11.679H147.797V14.2076H149.667V13.469L150.119 13.4565V15.3968L149.667 15.4093V14.6457H147.797V17.3747H148.537V17.7377H148.55Z" fill="#141414"/>
<path d="M59.804 38.8561H58.5741V34.1743H59.804V36.2273C61.398 37.3038 62.1008 37.5542 63.2555 37.5542C65.3514 37.5542 66.7571 36.4651 66.7571 34.8253C66.7571 33.3356 65.7405 32.2465 62.9166 30.7819C59.6283 29.067 58.4988 27.7526 58.4988 25.612C58.4988 23.0333 60.6951 21.1055 63.6446 21.1055C64.9498 21.1055 65.9162 21.3433 66.7571 21.8315V20.9052H67.962V25.3616H66.7571V23.5089C65.4268 22.6202 64.7741 22.3573 63.7324 22.3573C61.9502 22.3573 60.8081 23.4213 60.8081 25.0361C60.8081 26.3631 61.5611 27.1267 64.8243 29.0044C68.0875 30.8821 69.0288 32.0212 69.0288 34.1618C69.0288 36.8657 66.7822 38.9562 63.8328 38.9562C62.1887 38.9562 61.1219 38.6182 59.8166 37.7795V38.8561H59.804Z" fill="#141414"/>
<path d="M80.6758 38.6308H74.4632V37.6669H76.4211V30.7068L71.0118 22.3823H69.4932V21.4184H75.9442V22.3823H73.5721L78.0653 29.2172L82.2195 22.3823H79.8475V21.4184H85.0685V22.3823H83.7131L78.6928 30.5441V37.6543H80.6758V38.6308Z" fill="#141414"/>
<path d="M86.3613 38.6308V37.6669H88.3192V22.3823H86.3613V21.4184H94.0674C98.7739 21.4184 102.602 25.274 102.602 30.0058C102.602 34.8253 98.8367 38.6308 94.0298 38.6308H86.3613ZM90.616 37.3289H93.7537C97.3306 37.3289 100.054 34.1743 100.016 30.0308C100.016 26 97.2428 22.7453 93.8039 22.7453H90.616V37.3289Z" fill="#141414"/>
<path d="M117.675 38.9187H116.872L106.844 25.1488V37.6669H108.827V38.6308H103.556V37.6669H105.539V23.3712L104.836 22.3823H103.029V21.4184H106.806L116.37 34.5123V22.3823H114.387V21.4184H119.633V22.3823H117.675V38.9187Z" fill="#141414"/>
<path d="M133.288 38.6308H121.403V37.6669H123.373V22.3823H121.415V21.4184H131.832V20.6924H133.037V24.8359H131.857V22.6202H125.67V29.3048H130.602V27.352L131.807 27.327V32.4594L130.602 32.4844V30.4815H125.67V37.4666H132.096V35.1758H133.301V38.6308H133.288Z" fill="#141414"/>
<path d="M146.216 38.6308H140.003V37.6669H141.961V30.7068L136.551 22.3823H135.045V21.4184H141.496V22.3823H139.124L143.618 29.2172L147.772 22.3823H145.4V21.4184H150.621V22.3823H149.265L144.245 30.5441V37.6543H146.228V38.6308H146.216Z" fill="#141414"/>
<path d="M25.8167 33.7988H29.6698V33.2104H25.8167V33.7988ZM25.8167 35.3885H29.6698V34.8127H25.8167V35.3885ZM25.8167 32.209H29.6698V31.6206H25.8167V32.209ZM23.043 33.2104H19.19V33.7988H23.043V33.2104ZM23.043 34.8127H19.19V35.3885H23.043V34.8127ZM23.043 31.6206H19.19V32.209H23.043V31.6206ZM29.1678 21.4184C27.5989 21.3433 26.005 21.2932 24.4362 21.2932C22.8673 21.2932 21.2734 21.3433 19.7046 21.4184V29.1796H4.80691C5.42189 32.91 6.95308 36.39 9.13689 39.2942C9.42556 38.8811 9.91504 38.6057 10.4673 38.6057H19.7046V46.6923C21.2106 47.1054 22.792 47.3308 24.4236 47.3308V47.3934H24.4362V47.3308C26.0678 47.3308 27.6491 47.1054 29.1678 46.6798V38.6057H38.4176C38.9573 38.6057 39.4468 38.8686 39.7354 39.2817C41.9193 36.3775 43.4379 32.8849 44.0654 29.1671H29.1678V21.4184ZM21.7001 23.8344L23.7082 24.7858L24.4236 22.6952L25.1767 24.7858L27.1597 23.8219L26.2058 25.8247L28.3018 26.5383L26.2058 27.2894L27.1722 29.2672L25.1516 28.3158L24.4362 30.3938L23.6831 28.3033L21.7001 29.2672L22.654 27.2518L20.558 26.5383L22.6665 25.7872L21.7001 23.8344ZM14.6592 36.6654L12.6762 35.7015L11.9231 37.792L11.2078 35.714L9.1871 36.6654L10.166 34.6875L8.05753 33.9364L10.1535 33.2229L9.19965 31.2075L11.1701 32.1714L11.9231 30.0809L12.6385 32.1589L14.6592 31.2075L13.6928 33.1854L15.7888 33.9364L13.6928 34.65L14.6592 36.6654ZM17.8471 36.5152H16.9685V35.8767H17.8471V36.5152ZM17.8471 34.8002H16.9685V34.1618H17.8471V34.8002ZM17.8471 33.0852H16.9685V32.4468H17.8471V33.0852ZM17.8471 31.3828H16.9685V30.7443H17.8471V31.3828ZM18.324 36.5152V30.3438H22.2147C22.29 30.3312 22.3779 30.3438 22.4532 30.3438C23.3443 30.3438 24.0345 31.0323 24.0345 31.896V37.066C23.7459 36.728 23.3066 36.5027 22.8171 36.5027C22.7544 36.5152 19.5414 36.5152 18.324 36.5152ZM27.1722 44.5643L25.1516 43.6129L24.4362 45.7034L23.6831 43.6004L21.7001 44.5643L22.654 42.5489L20.558 41.8353L22.654 41.0843L21.6876 39.1064L23.7082 40.0578L24.4236 37.9798L25.1767 40.0703L27.1597 39.1064L26.2058 41.1218L28.3018 41.8353L26.2058 42.5864L27.1722 44.5643ZM34.2006 31.2075L36.2213 32.1589L36.9366 30.0809L37.6897 32.1714L39.6727 31.2075L38.7188 33.2229L40.8148 33.9364L38.7063 34.6875L39.6727 36.6654L37.652 35.714L36.9366 37.792L36.1836 35.7015L34.2006 36.6654L35.1544 34.65L33.0585 33.9364L35.1544 33.1854L34.2006 31.2075ZM31.0127 30.7318H31.8913V31.3702H31.0127V30.7318ZM31.0127 32.4468H31.8913V33.0852H31.0127V32.4468ZM31.0127 34.1618H31.8913V34.8002H31.0127V34.1618ZM31.0127 35.8767H31.8913V36.5152H31.0127V35.8767ZM30.5483 30.3438V36.5152C29.3309 36.5152 26.1054 36.5152 26.0427 36.5152C25.5532 36.5152 25.1265 36.728 24.8252 37.0785V31.9085C24.8252 31.0323 25.5155 30.3563 26.4066 30.3563C26.4819 30.3563 26.5698 30.3438 26.6451 30.3563H30.5483V30.3438ZM38.2294 4.0183C34.3889 3.20462 29.3184 2.40347 24.4362 2.40347C17.1066 2.40347 9.36281 4.21858 5.96157 5.1324C5.28384 5.30766 4.78181 5.45787 4.48059 5.5455V22.1695C6.68951 21.819 15.7888 20.442 24.4236 20.4295C33.0585 20.4295 42.1577 21.8065 44.3666 22.1695V5.5455C44.0654 5.45787 43.5634 5.32017 42.8857 5.1324C41.7687 4.83197 40.1496 4.43139 38.2294 4.0183ZM17.3952 5.77082C17.6965 5.69572 17.0438 5.20751 17.4705 5.23255C17.7467 5.24507 18.6629 5.24507 19.3531 5.58305C19.4787 5.63312 19.5665 5.39528 19.8301 5.22003C19.8552 5.20751 19.9179 5.18248 19.9556 5.22003C20.2317 5.38276 20.3195 5.63313 20.4576 5.57053C21.1479 5.24507 22.0515 5.24507 22.3151 5.22003C22.7544 5.19499 22.0892 5.69572 22.3904 5.75831C23.9467 6.13385 25.1014 7.44824 25.1014 9.013C25.1014 9.46365 24.9884 9.88926 24.8378 10.2898C24.7499 10.5026 24.5366 9.90178 24.4487 10.2523C24.2981 10.8907 24.135 11.3664 23.7961 12.0048C23.4698 12.6057 22.9426 11.3539 22.7795 11.7044C22.4783 12.3303 21.7754 12.5556 21.2859 12.6307C21.2232 12.6307 21.173 12.6307 21.2483 12.5681C21.2734 12.5431 21.3989 12.4304 21.424 12.2051C21.424 12.1801 21.4115 12.1425 21.4617 12.1175C21.8382 11.9422 22.1143 11.5917 22.1896 11.1786C22.3026 10.7906 22.4657 10.2398 22.654 9.90178C23.0807 9.1507 22.5661 8.2494 22.6916 8.04911C22.9803 7.86134 23.1686 7.53587 23.1686 7.16033C23.1686 6.57198 22.6916 6.09629 22.1017 6.09629C21.788 6.09629 21.4993 6.23399 21.3111 6.45932L21.2859 6.48435C21.1855 6.5845 21.0977 6.69716 21.0098 6.80982C20.9094 6.935 20.9345 7.16033 21.0977 7.19788C21.8256 7.38565 22.29 9.013 22.0013 9.53876C21.8758 9.7766 21.4742 10.6529 21.4742 10.9032C21.4742 11.2287 21.2106 11.4916 20.8843 11.4916C20.6333 11.4916 20.42 11.3414 20.3321 11.1035L20.3446 11.0785C20.5455 10.9533 20.9847 10.6904 20.9847 10.415L20.8969 9.52624C21.2608 9.48869 21.424 9.2884 21.4742 8.95041C21.5119 8.92537 21.537 8.90034 21.5621 8.8753C21.6876 8.76264 21.7629 8.46221 21.4993 8.51228C21.1353 8.57487 20.7212 8.56235 20.307 8.67501C20.2568 8.68753 20.2191 8.7376 20.2066 8.78767C20.194 8.86278 20.42 9.93934 20.4827 10.1772C20.4827 10.2022 20.4702 10.2147 20.4576 10.2147C20.2944 10.2022 20.0058 10.1897 19.9305 10.1897C19.8552 10.1897 19.5791 10.2022 19.4033 10.2147C19.3908 10.2147 19.3657 10.1897 19.3657 10.1772C19.4159 9.92682 19.6544 8.85027 19.6544 8.85027C19.6544 8.80019 19.6544 8.76264 19.6293 8.72508C19.554 8.62494 18.4997 8.53731 18.3616 8.51228C18.2989 8.49976 18.2361 8.5248 18.1985 8.57487C18.0981 8.72508 18.2738 8.88782 18.3993 8.95041C18.4495 9.27588 18.6127 9.47617 18.9641 9.51372L18.9766 9.52624C18.9641 9.58883 18.8762 10.415 18.8762 10.415C18.8762 10.7029 19.3155 10.9408 19.5289 11.066C19.5414 11.0785 19.554 11.1035 19.554 11.116C19.4536 11.3163 19.2402 11.4665 19.0143 11.4665C18.688 11.4665 18.4244 11.2037 18.4244 10.8782C18.4244 10.6654 18.0353 9.75157 17.8847 9.5012C17.5709 8.96293 18.0353 7.36062 18.7884 7.17285C18.9515 7.13529 19.0394 6.89745 18.9139 6.77227C18.6001 6.45932 18.2361 6.07126 17.7592 6.07126C17.1693 6.07126 16.705 6.54694 16.705 7.13529C16.705 7.81127 17.2195 7.91141 17.1819 8.09918C16.9685 8.72508 16.9685 9.40106 17.2446 9.87675C17.4329 10.2022 17.5835 10.7405 17.709 11.116C17.7843 11.5041 18.0102 11.8421 18.3491 12.0299C18.5122 12.13 18.4369 12.2552 18.4997 12.3929C18.5373 12.4555 18.5876 12.5055 18.6252 12.5431C18.7005 12.5932 18.6378 12.6057 18.5876 12.6057C18.0981 12.5431 17.3325 12.3303 17.0187 11.6668C16.8556 11.3163 16.3159 12.5681 16.0021 11.9673C15.6632 11.3288 15.5126 10.8532 15.3495 10.2147C15.2616 9.86423 15.0483 10.4651 14.9604 10.2523C14.8098 9.85171 14.6968 9.43861 14.6968 8.97545C14.6968 7.44824 15.8515 6.13385 17.3952 5.77082ZM21.8256 6.85989C21.8131 6.84738 21.8131 6.78479 21.8382 6.77227C21.9135 6.70968 22.0139 6.68464 22.1143 6.68464C22.3779 6.68464 22.5912 6.89745 22.5912 7.16033C22.5912 7.31054 22.5285 7.43572 22.4155 7.52335C22.3904 7.54839 22.3402 7.52335 22.3277 7.49832C22.1896 7.24795 22.0264 7.03515 21.8256 6.85989ZM20.7588 12.1926C20.6459 12.493 20.2191 12.3929 19.9932 12.5806C19.9681 12.6057 19.9054 12.6057 19.8803 12.5806C19.6544 12.3929 19.2402 12.4805 19.1021 12.155C19.0896 12.13 19.0896 12.0799 19.1523 12.0674C19.4536 12.0299 19.7171 11.8922 19.9054 11.6793C19.9179 11.6543 19.9681 11.6418 20.0183 11.6919C20.194 11.8796 20.4325 12.0299 20.7086 12.0674C20.7337 12.0799 20.7839 12.105 20.7588 12.1926ZM17.5584 7.51083C17.5458 7.52335 17.4956 7.54839 17.458 7.51083C17.3576 7.42321 17.2823 7.28551 17.2823 7.13529C17.2823 6.87241 17.4956 6.65961 17.7592 6.65961C17.8847 6.65961 17.9977 6.70968 18.0855 6.78479C18.1232 6.80982 18.0981 6.87241 18.0855 6.88493C17.8847 7.08522 17.709 7.28551 17.5584 7.51083ZM13.3665 13.6071C13.0402 13.6071 12.9146 13.7073 12.6762 13.8575C12.5256 13.9576 12.4879 13.6697 12.6636 13.0814C12.8017 12.6182 11.8855 12.3678 11.6721 12.5806C11.3584 12.8185 10.5802 13.2942 9.80208 12.4805C9.65147 12.3178 10.1535 12.3678 10.1786 12.2301C10.2288 12.0173 10.4171 11.8922 10.4924 11.817C10.5426 11.7545 10.5426 11.6543 10.4547 11.6168C10.2163 11.4916 9.88993 11.2162 9.97779 10.7155C9.99034 10.6403 9.57617 10.6153 9.71422 10.4901C10.4422 9.82667 11.2329 10.2398 11.5466 10.4526C11.5968 10.4776 11.7098 10.4776 11.7223 10.3775C11.7474 10.1647 11.6345 10.0144 12.0738 9.66394C12.1616 9.58883 11.8227 9.30092 12.0612 9.31343C13.5547 9.68898 12.877 11.2412 13.1908 11.5166C13.7681 12.0299 15.1487 12.4304 16.4414 12.7058C16.5543 12.7309 16.956 12.8686 17.0438 12.9186C18.0981 13.4569 18.7382 13.4068 19.3029 13.1815C19.4787 13.1064 19.4787 13.3442 19.4159 13.3943C17.3325 15.3847 15.7385 14.8715 15.1863 14.5209C14.7972 14.2706 13.994 14.2581 13.63 14.7713C13.5673 14.8339 13.4543 14.8715 13.4041 14.7087C13.2912 14.3332 13.4167 14.0828 13.5296 13.8074C13.6049 13.6447 13.4292 13.6071 13.3665 13.6071ZM33.2467 15.4473C32.9706 15.6851 32.4686 15.9605 31.6779 15.923C31.339 15.9104 31.1759 16.0106 31.1006 16.0982C31.0504 16.1608 31.0253 16.2484 31.0127 16.261C30.9625 16.4237 31.0253 16.5989 31.1131 16.7366C31.201 16.8618 31.1633 16.9369 31.0378 16.962C30.9123 16.9995 30.7366 16.9995 30.3977 16.8368C30.2471 16.7617 30.2095 16.8618 30.1844 16.9244C30.1216 17.0871 30.2346 17.2874 30.4605 17.4377C30.5734 17.5378 30.5483 17.6379 30.3726 17.7005C30.0714 17.8007 29.8079 17.663 29.3686 17.4251C29.1176 17.2874 28.9168 17.2624 28.7411 17.4627C28.6406 17.5754 28.6532 17.6755 28.7034 17.7381C28.8791 17.9008 28.9795 18.2388 28.5528 18.7771C28.4147 18.9523 28.2641 18.4641 28.1261 18.5267C27.5487 18.8021 27.0718 18.4391 26.8836 18.2013C26.8459 18.1512 26.758 18.1387 26.6576 18.2013C26.369 18.4015 25.7414 18.7145 25.503 18.1512C25.4653 18.0636 25.1265 18.2764 25.1265 18.1136C25.139 17.1873 25.9423 17.012 26.2937 16.987C26.3941 16.9745 26.4192 16.9244 26.369 16.8368C26.2309 16.6365 26.0678 16.3987 26.1556 16.1233C26.2184 15.923 25.6912 15.8729 25.9046 15.7602C26.9714 15.2345 27.5613 16.2484 27.7495 16.3486C28.0633 16.5238 29.4439 16.0732 29.6196 15.3221C29.6573 15.1719 29.2933 15.1093 28.9419 15.0217C28.8791 15.0091 28.8415 14.9215 28.9544 14.8339C29.7953 14.208 30.473 13.3943 31.9917 13.2441C32.1799 13.2191 32.2552 13.3818 32.2552 13.4569C32.2803 13.6948 32.3431 13.9201 32.4435 14.1329C32.6694 14.5961 32.933 14.884 33.1965 15.0968C33.3471 15.247 33.322 15.3847 33.2467 15.4473ZM39.6225 14.9716C39.7605 15.0467 39.7605 15.1218 39.6601 15.2094C39.5597 15.2971 39.3966 15.3847 39.0326 15.3847C38.8694 15.3847 38.8694 15.4848 38.882 15.5599C38.9071 15.7352 39.0954 15.8604 39.3589 15.8979C39.497 15.9355 39.5346 16.0356 39.3966 16.1608C39.1707 16.3861 38.882 16.3861 38.38 16.3736C37.903 16.3611 37.5265 16.9244 37.8026 17.1623C37.9909 17.325 38.3674 17.6755 38.0411 18.6519C37.9407 18.9398 37.7524 18.389 37.6018 18.4767C37.2128 18.7145 36.8613 18.4141 36.6856 18.2013C36.6103 18.1136 36.535 18.1136 36.4848 18.2013C36.3217 18.4766 35.9075 18.9523 35.0791 18.5017C34.9034 18.4015 34.5269 18.7395 34.5018 18.6269C34.3638 17.9759 34.7026 17.6004 34.9787 17.4001C35.0038 17.3751 35.1168 17.2248 34.9285 17.2374C34.6524 17.2248 34.301 17.1372 34.2633 16.7867C34.2633 16.7116 33.8994 16.7366 33.9245 16.6365C34.0123 16.1608 35.054 15.8103 35.782 16.2985C36.397 16.6991 37.1626 15.3221 36.6103 14.6837C36.2087 14.2205 33.8743 15.5224 33.0836 13.8325C32.7698 13.1565 33.1589 12.5806 32.8451 12.5306C32.5188 12.4805 31.0504 12.1676 29.4188 13.4694C26.6702 15.6726 23.6831 14.4709 22.9803 13.9827C22.8673 13.9451 22.7669 14.0327 22.8046 14.1454C22.9175 14.4333 22.8673 14.6962 22.7293 14.8965C22.4406 15.3346 21.4491 15.7728 21.2734 15.8228C20.1187 16.1608 20.2317 17.0496 20.3572 17.4377C20.3949 17.5628 20.3446 17.6254 20.2191 17.6129C19.8677 17.5503 19.1523 17.325 18.8637 16.6365C18.8386 16.5614 18.7507 16.5489 18.6503 16.624C18.2236 16.9244 18.3742 17.3751 18.4746 17.5753C18.5122 17.6505 18.4871 17.7256 18.3867 17.7381C17.9977 17.7882 17.709 17.325 17.3701 17.3625C17.1442 17.3876 16.8932 17.5503 16.7426 17.6505C16.6798 17.688 16.6673 17.8007 16.705 17.9384C17.1317 19.2152 16.4288 19.2653 16.3786 19.2403C16.3284 19.2152 16.3535 19.0024 16.1527 18.9649C15.4499 19.0024 15.2616 18.5518 15.224 18.2138C15.2114 18.1011 15.1612 18.0636 15.0985 18.1136C14.8349 18.3014 14.1823 18.6519 13.7681 18.1261C13.7053 18.051 13.5171 18.1261 13.4041 18.1762C13.3163 18.2138 13.3163 18.0761 13.3163 18.026C13.3665 17.3 13.8559 16.962 14.1321 16.8368C14.2325 16.7867 14.245 16.7366 14.1572 16.674C13.9313 16.5113 13.5422 16.1608 13.6677 15.7728C13.6928 15.6976 13.3414 15.5599 13.4292 15.4974C14.2325 14.9215 15.2616 15.8729 15.3871 15.9856C15.5252 16.0982 16.2531 16.1233 18.1106 15.0717C19.2904 14.4083 19.9054 13.8575 20.2442 13.4444C20.2819 13.3943 20.3697 13.3067 20.4953 13.3067C21.2483 13.2817 21.9888 13.169 22.5661 12.6683C22.6665 12.5681 22.7544 12.6307 22.8046 12.6558C23.8714 13.3943 24.4111 11.767 24.637 11.0159C24.6621 10.8657 24.6997 10.7405 24.8629 10.728C28.7787 10.9157 36.1962 10.8907 36.1962 10.8907C36.1962 10.8907 37.1751 10.9658 37.1249 10.365C37.0496 9.38854 32.9957 9.41358 29.9836 9.82667C28.8917 9.97689 27.2977 10.0645 26.3564 9.70149C25.9674 9.55128 25.6536 9.31343 25.4779 9.00048C25.2896 8.5999 25.3398 8.36206 25.3775 8.1117C25.4277 7.93645 25.5155 7.73616 25.641 7.53587C26.4192 6.34665 28.2014 6.24651 28.7662 6.24651C28.8666 6.24651 28.9419 6.19644 28.9544 6.12133C29.0046 5.84593 29.218 5.20751 29.971 5.16996C30.1844 5.15744 30.3977 5.08233 30.5358 5.01974C30.6237 4.98219 30.6864 5.00722 30.6613 5.08233C30.6362 5.18247 30.5986 5.30766 30.4856 5.4078C29.9585 5.85845 30.0338 6.07126 30.0965 6.12133C30.1342 6.14637 30.1844 6.13385 30.222 6.09629C31.816 4.70679 32.7447 5.63313 33.0334 5.93356C33.0836 5.98363 33.0961 6.07126 32.9957 6.09629C31.9164 6.33414 31.4896 7.29803 29.2807 7.14781C29.0172 7.13529 27.1973 7.03515 26.62 7.86134C26.2937 8.33703 26.5196 8.77516 27.4985 9.00048C28.239 9.16322 29.971 8.91286 30.7868 8.85027C31.5901 8.78767 35.0666 8.34954 36.899 8.8753C37.6646 9.10063 38.7941 9.71401 38.5682 10.8782C38.4176 11.6168 37.7148 11.9047 37.7148 11.9047C37.7148 11.9047 35.7067 13.3067 39.3087 13.3317C40.4257 13.3317 39.3213 14.2581 39.2711 14.5209C39.2711 14.6962 39.4468 14.8715 39.6225 14.9716ZM33.0208 7.19788C32.9079 7.22292 32.7573 7.26047 32.5816 7.37314C32.2552 7.58594 30.95 8.12422 30.5483 7.4858C30.5483 7.4858 31.4645 7.46076 32.0544 6.935C32.0544 6.935 32.6945 6.7222 33.071 7.06018C33.1212 7.08522 33.1212 7.17285 33.0208 7.19788ZM24.4362 0C12.1867 0 0 3.25469 0 3.25469V19.5031C0 34.1493 10.5175 49.3712 24.4362 52C38.8694 49.1834 48.8849 34.1367 48.8849 19.5031V3.25469C48.8723 3.25469 38.6561 0 24.4362 0ZM45.2452 25.4367C45.2452 37.3664 36.1585 48.182 24.4362 48.1945H24.4236C12.7013 48.182 3.61459 37.3539 3.61459 25.4367C3.61459 11.429 3.61459 4.90708 3.61459 4.90708L3.91581 4.81945C3.94091 4.81945 14.4709 1.55224 24.4236 1.55224C34.3763 1.55224 44.9314 4.81945 44.9314 4.81945L45.2326 4.90708C45.2452 4.90708 45.2452 11.429 45.2452 25.4367Z" fill="#141414"/>
<line x1="175.121" y1="2.18557e-08" x2="175.121" y2="52" stroke="#141414"/>
<g clip-path="url(#clip0_120_2090)">
<path d="M198.621 24.5535C198.621 21.8455 200.883 18.2977 205.117 18.2977C206.573 18.2977 207.499 18.7776 208.287 19.1975L207.867 21.9227H207.619L207.25 19.6174C206.719 19.1032 206.025 18.6919 205.057 18.6919C202.734 18.6919 199.983 20.8857 199.983 24.7763C199.983 27.3472 201.44 28.6327 203.205 28.6327C204.182 28.6327 204.988 28.2727 205.605 27.8443L207.01 25.3676H207.276L206.488 28.2899C205.742 28.5813 204.662 29.044 203.034 29.044C200.437 29.044 198.621 27.3729 198.621 24.5535Z" fill="#141414"/>
<path d="M209.847 24.802C211.098 24.5364 212.838 23.5509 212.838 22.4539C212.838 22.094 212.624 21.9398 212.341 21.9398C211.569 21.9398 210.404 23.1138 209.847 24.802ZM208.313 26.9359C208.313 25.3419 209.47 23.4652 210.73 22.4025C211.561 21.6913 212.289 21.417 212.958 21.417C213.669 21.417 214.029 21.7684 214.029 22.3425C214.029 23.5937 211.707 24.802 209.744 25.1619C209.624 25.6418 209.538 26.1646 209.538 26.7131C209.538 27.4843 209.898 28.1527 210.687 28.1527C211.304 28.1527 212.092 27.6129 212.726 26.5417L213.009 26.6531C212.435 27.8871 211.449 29.0183 210.07 29.0183C208.913 29.0183 208.322 28.1527 208.322 26.9444" fill="#141414"/>
<path d="M214.509 28.9669C214.063 28.9669 213.909 28.5812 214.063 28.0071L216.6 18.4605L215.657 17.8264L215.691 17.715L218.04 17.2522L215.22 27.9042H215.263C215.794 27.5186 216.394 26.8673 216.84 26.2332L217.054 26.3617C216.42 27.4929 215.194 28.9754 214.5 28.9754" fill="#141414"/>
<path d="M219.102 24.802C220.353 24.5364 222.093 23.5509 222.093 22.4539C222.093 22.094 221.879 21.9398 221.596 21.9398C220.825 21.9398 219.659 23.1138 219.102 24.802ZM217.577 26.9359C217.577 25.3419 218.734 23.4652 219.993 22.4025C220.825 21.6913 221.553 21.417 222.222 21.417C222.933 21.417 223.293 21.7684 223.293 22.3425C223.293 23.5937 220.97 24.802 219.008 25.1619C218.879 25.6418 218.802 26.1646 218.802 26.7131C218.802 27.4843 219.162 28.1527 219.951 28.1527C220.568 28.1527 221.356 27.6129 221.99 26.5417L222.273 26.6531C221.699 27.8871 220.713 29.0183 219.334 29.0183C218.177 29.0183 217.585 28.1527 217.585 26.9444" fill="#141414"/>
<path d="M224.295 27.7586C224.45 28.1442 224.81 28.6241 225.469 28.6241C226.892 28.6241 228.383 25.839 228.503 23.6109C228.546 22.7882 228.349 22.2997 227.912 22.2997C226.763 22.2997 225.075 25.0848 224.69 26.396L224.287 27.7586H224.295ZM223.207 27.9385L223.13 27.8271L225.624 18.4519L224.681 17.8178L224.707 17.7064L227.063 17.2436L225.144 24.5192H225.238C226.215 22.8139 227.406 21.4085 228.674 21.4085C229.446 21.4085 229.848 22.1369 229.823 23.2338C229.763 25.479 227.535 29.0097 225.101 29.0097C224.501 29.0097 223.755 28.7012 223.216 27.9385" fill="#141414"/>
<path d="M230.5 26.9787C231.417 23.8508 231.802 22.3511 231.802 22.3511C231.537 22.2397 230.937 22.2397 230.551 22.3682V22.214C230.988 21.7855 231.631 21.4084 232.205 21.4084C232.856 21.4084 233.071 21.9312 232.839 22.6425L232.008 25.2905H232.137C233.671 22.0255 234.502 21.4084 235.264 21.4084C235.684 21.4084 235.95 21.6741 235.95 22.0597C235.95 22.5225 235.564 23.0795 235.162 23.4394H234.896C235.11 22.7539 235.05 22.3854 234.665 22.3854C233.936 22.3854 232.342 25.1534 231.665 27.2015L231.168 28.7183L230.208 28.984L229.994 28.7955L230.525 26.9873L230.5 26.9787Z" fill="#141414"/>
<path d="M236.618 28.1613C237.621 28.1613 239.695 24.862 240.072 23.7223L240.44 22.5911C240.158 22.2054 239.866 21.9998 239.498 21.9998C238.032 21.9998 236.31 24.7335 236.173 27.2958C236.138 27.9642 236.361 28.1613 236.618 28.1613ZM241.897 20.9971L239.978 27.9042H240.029C240.569 27.5015 241.186 26.8073 241.606 26.2332L241.82 26.3617C241.049 27.69 239.935 28.9755 239.266 28.9755C238.941 28.9755 238.598 28.7098 238.864 27.8443L239.575 25.539H239.515C238.555 27.0387 237.33 29.0097 236.019 29.0097C235.342 29.0097 234.827 28.547 234.887 27.51C235.084 24.0908 238.264 21.5799 239.781 21.5799C240.26 21.5799 240.646 21.6998 240.929 21.8712L241.443 21.0057H241.906L241.897 20.9971Z" fill="#141414"/>
<path d="M242.763 21.8712L244.108 21.6227L245.034 19.506H245.642L245.18 21.6227H247.365L247.245 22.2054H245.042L243.543 27.8871H243.577C244.117 27.6814 245.042 26.8673 245.839 25.8732L246.071 26.0446C245.282 27.2958 243.868 28.9583 242.849 28.9583C242.463 28.9583 242.249 28.5898 242.334 28.1956L243.928 22.2054H242.703L242.763 21.8627V21.8712Z" fill="#141414"/>
<path d="M249.559 18.0663C249.961 18.0663 250.304 18.4091 250.304 18.8119C250.304 19.2146 249.961 19.5574 249.559 19.5574C249.156 19.5574 248.813 19.2146 248.813 18.8119C248.813 18.4091 249.156 18.0663 249.559 18.0663ZM247.39 22.3683V22.1969C247.776 21.837 248.385 21.4085 248.95 21.4085C249.567 21.4085 249.867 21.8712 249.644 22.6425L248.17 27.8871H248.213C248.659 27.5786 249.447 26.7559 249.79 26.216L250.004 26.3446C249.276 27.5957 248.136 28.9583 247.45 28.9583C246.996 28.9583 246.833 28.5555 246.996 27.9814L248.625 22.3511C248.41 22.2569 247.896 22.214 247.373 22.3683" fill="#141414"/>
<path d="M252.241 22.3597C251.975 22.2483 251.375 22.2483 250.99 22.3768V22.2226C251.427 21.7941 252.069 21.417 252.644 21.417C253.218 21.417 253.509 21.8969 253.329 22.5139L252.695 24.6306H252.755C253.715 22.9167 255 21.417 256.217 21.417C256.98 21.417 257.22 22.0169 257.023 22.7282L255.583 27.8957H255.634C256.174 27.4929 256.791 26.7987 257.211 26.2246L257.425 26.3531C256.654 27.6814 255.54 28.9669 254.872 28.9669C254.546 28.9669 254.22 28.7012 254.426 28.0071L255.926 22.7625C255.986 22.4797 255.883 22.2826 255.617 22.2826C254.675 22.2826 252.832 24.2964 251.949 27.3301L251.547 28.7269L250.587 28.9926L250.373 28.804L252.241 22.3683V22.3597Z" fill="#141414"/>
<path d="M259.302 25.3076C259.251 26.0532 259.414 26.6102 259.971 26.6102C261.042 26.6102 262.104 24.6135 262.164 23.0967C262.199 22.2825 262.053 21.7855 261.487 21.7855C260.433 21.7855 259.379 23.7222 259.311 25.3162M259.936 32.3519C261.188 32.3519 261.976 31.7606 262.01 31.2035C262.027 30.8779 261.805 30.6294 260.768 30.0723L259.705 29.4982C258.128 30.0381 257.46 30.4408 257.46 31.1264C257.46 31.812 258.171 32.3519 259.936 32.3519ZM259.414 26.9016C258.574 26.6102 258.265 25.6161 258.265 24.9049C258.265 23.2509 259.594 21.4084 261.573 21.4084C261.933 21.4084 262.302 21.5456 262.422 21.6398L264.59 21.4342L264.384 22.2825L262.884 22.1283L262.901 22.1883C263.021 22.4197 263.193 22.8824 263.193 23.4909C263.193 25.2048 261.77 26.9701 259.953 26.9701C259.611 27.1415 259.362 27.4329 259.362 27.7157C259.362 27.8699 259.422 27.9899 259.516 28.067L261.839 29.3354C262.893 29.9095 262.996 30.3209 262.996 30.6808C262.996 31.7006 261.308 32.7975 259.139 32.7975C257.357 32.7975 256.183 32.3947 256.183 31.4692C256.183 30.4751 257.64 29.7638 259.354 29.3182V29.3011L258.968 29.104C258.565 28.8897 258.368 28.6241 258.368 28.187C258.368 27.63 258.814 27.2444 259.388 26.9359V26.893L259.414 26.9016Z" fill="#141414"/>
<path d="M315.279 24.0736C315.433 22.5225 316.179 21.3999 317.079 21.417C318.056 21.4342 318.673 22.7796 318.673 24.9563C318.673 26.7388 318.347 28.2042 317.978 29.3097H318.056C319.632 27.5272 320.781 25.4105 320.781 23.5337C320.781 22.6082 320.395 21.9998 320.112 21.6313C320.361 21.477 320.635 21.3999 320.918 21.3999C321.269 21.3999 321.646 21.6656 321.629 22.5311C321.569 27.5015 315.45 32.8232 313.677 32.8232C313.231 32.8232 312.905 32.549 312.905 32.0948C312.905 31.6406 313.197 31.3407 313.617 31.3407C314.036 31.3407 314.345 31.5892 314.465 32.1719H314.499C316.762 31.3235 317.533 27.75 317.533 25.2734C317.533 23.1224 317.053 22.3768 316.607 22.3768C316.127 22.3768 315.879 22.8739 315.57 24.0822H315.296L315.279 24.0736Z" fill="#141414"/>
<path d="M323.403 24.802C324.654 24.5364 326.394 23.5509 326.394 22.4539C326.394 22.094 326.18 21.9398 325.897 21.9398C325.126 21.9398 323.96 23.1138 323.403 24.802ZM321.869 26.9359C321.869 25.3419 323.026 23.4652 324.286 22.4025C325.126 21.6913 325.845 21.417 326.514 21.417C327.225 21.417 327.585 21.7684 327.585 22.3425C327.585 23.5937 325.263 24.802 323.3 25.1619C323.18 25.6418 323.095 26.1646 323.095 26.7131C323.095 27.4843 323.455 28.1527 324.243 28.1527C324.86 28.1527 325.648 27.6129 326.282 26.5417L326.557 26.6531C325.983 27.8871 324.997 29.0183 323.617 29.0183C322.46 29.0183 321.869 28.1527 321.869 26.9444" fill="#141414"/>
<path d="M328.948 28.1613C329.95 28.1613 332.024 24.862 332.401 23.7223L332.77 22.5911C332.487 22.2054 332.196 21.9998 331.827 21.9998C330.362 21.9998 328.639 24.7335 328.502 27.2958C328.468 27.9642 328.691 28.1613 328.948 28.1613ZM334.227 20.9971L332.307 27.9042H332.358C332.898 27.5015 333.515 26.8073 333.935 26.2332L334.149 26.3617C333.378 27.69 332.264 28.9755 331.596 28.9755C331.27 28.9755 330.927 28.7098 331.193 27.8443L331.904 25.539H331.844C330.884 27.0387 329.659 29.0097 328.348 29.0097C327.671 29.0097 327.157 28.547 327.217 27.51C327.414 24.0908 330.593 21.5799 332.101 21.5799C332.581 21.5799 332.967 21.6998 333.25 21.8712L333.764 21.0057H334.227V20.9971Z" fill="#141414"/>
<path d="M335.101 26.9787C336.018 23.8508 336.403 22.3511 336.403 22.3511C336.138 22.2397 335.538 22.2397 335.152 22.3682V22.214C335.589 21.7855 336.232 21.4084 336.806 21.4084C337.457 21.4084 337.671 21.9312 337.44 22.6425L336.609 25.2905H336.737C338.271 22.0255 339.103 21.4084 339.865 21.4084C340.285 21.4084 340.542 21.6741 340.542 22.0597C340.542 22.5225 340.157 23.0795 339.754 23.4394H339.488C339.702 22.7539 339.643 22.3854 339.257 22.3854C338.528 22.3854 336.935 25.1534 336.258 27.2015L335.76 28.7183L334.801 28.984L334.586 28.7955L335.118 26.9873L335.101 26.9787Z" fill="#141414"/>
<path d="M341.185 29.0097C340.148 29.0097 339.651 28.4098 339.668 27.9299C339.668 27.6043 339.874 27.2615 340.011 27.1587H340.028C340.474 27.81 341.185 28.3841 341.888 28.3841C342.428 28.3841 342.77 27.9642 342.77 27.5015C342.77 27.0987 342.505 26.7131 342.256 26.3103L341.605 25.2134C341.048 24.2707 340.911 24.0822 340.911 23.6194C340.911 22.4111 342.625 21.417 343.576 21.417C344.441 21.417 344.69 21.8369 344.69 22.2654C344.69 22.5139 344.579 22.7796 344.399 23.011H344.364C343.85 22.4539 343.387 22.0683 342.805 22.0683C342.342 22.0683 341.905 22.4368 341.905 22.9681C341.905 23.2938 341.965 23.448 342.333 24.065L343.139 25.3762C343.584 26.1046 343.773 26.3788 343.773 26.8502C343.773 27.75 342.522 29.0183 341.185 29.0183" fill="#141414"/>
<path d="M274.188 37.7336L274.111 38.4106H263.244L263.364 37.7336L267.58 36.9452L271.694 15.5554L266.826 16.0439L266.903 15.3326L275.13 12.616H275.276L270.528 36.9452L274.188 37.7336Z" fill="#141414"/>
<path d="M277.907 48H275.113L291.524 22.6511H277.093L277.778 19.4717H294.532L294.446 19.9002C282.2 39.4047 277.907 47.9915 277.907 47.9915" fill="#141414"/>
<path d="M310.506 15.4783H300.402L298.44 23.6623C299.494 23.0195 300.779 22.6082 302.665 22.6082C306.058 22.6082 309.34 24.8363 309.34 28.9069C309.34 34.4171 303.684 38.3335 298.851 38.3335C296.246 38.3335 293.984 37.1251 293.984 35.2056C293.984 34.4514 294.472 33.5859 295.757 33.0546C297 36.0368 298.851 36.9023 300.771 36.9023C303.487 36.9023 306.615 34.7171 306.615 30.5694C306.615 27.2101 304.353 25.1791 301.259 25.1791C299.185 25.1791 297.977 25.8218 296.811 26.7645L296.392 26.6531L299.837 12.6931H311.114L310.514 15.4868L310.506 15.4783Z" fill="#141414"/>
</g>
<defs>
<clipPath id="clip0_120_2090">
<rect width="146.061" height="35.384" fill="white" transform="translate(198.621 12.616)"/>
</clipPath>
</defs>
</svg>
